<svg id="Layer_1" enable-background="new 0 0 512.002 512.002" height="512" viewBox="0 0 512.002 512.002" width="512" xmlns="http://www.w3.org/2000/svg"><g><g><path d="m333.157 247.383h-17.75l-1.091 1.168v10.455c0 9.342-5.51 14.659-13.814 18.941-11.398 5.877-14.823 39.222 6.607 50.1l6.089.92 42.625-16.5v-24.167z" fill="#365e7d"/><path d="m330.002 277.947c6.338-3.268 11.038-7.146 12.913-12.948l-9.759-17.616h-17.75l-1.091 1.168v10.455c0 9.342-5.51 14.659-13.814 18.941-11.398 5.877-14.823 39.222 6.607 50.1l6.089.92 16.213-6.276c-13.18-13.831-9.305-39.64.592-44.744z" fill="#2b4d66"/><path d="m460.001 277.947c-8.326-4.293-13.811-9.613-13.811-18.938v-10.623l-1.741-1.646h-18.619l-21.381 43.225v21.875l44 17.125 4.093-1.24c20.985-11.168 18.746-43.958 7.459-49.778z" fill="#365e7d"/><path d="m193.095 214.611h-3.806l-1.716-1.644h-10.125v33.759l2.954 1.55h12.692c8.83 0 15.988-7.536 15.988-16.833.002-9.296-7.156-16.832-15.987-16.832z" fill="#ffcebe"/><path d="m70.378 214.612c-8.817.016-15.961 7.544-15.961 16.831 0 9.296 7.158 16.833 15.988 16.833h12.693l2.064-3.809v-31.5h-11.838z" fill="#ffcebe"/><path d="m194.137 214.666c-.346-.024-.69-.055-1.042-.055h-3.806l-1.716-1.644h-10.125v33.759l2.954 1.55h12.692c.352 0 .696-.032 1.042-.055v-33.555z" fill="#ffb1a0"/><path d="m71.106 231.443c0-8.606 6.139-15.691 14.056-16.697v-1.779h-11.838l-2.946 1.646c-8.817.016-15.961 7.544-15.961 16.831 0 9.296 7.158 16.833 15.988 16.833h12.693l.261-.481c-7.025-1.775-12.253-8.413-12.253-16.353z" fill="#ffb1a0"/><path d="m478.202 337.665c-2.286-.885-32.987-12.775-52.372-20.283l-4.673 2.071h-80.833l-5.775-2.044c-19.305 7.484-51.712 20.048-52.247 20.256-11.244 4.627-26.301 19.188-26.301 40.794v48.675h40.522v77.977h167.457v-77.977h40.522c0-23.588 0-44.97 0-48.675 0-18.608-11.913-34.873-26.3-40.794z" fill="#ff7f87"/><path d="m290.055 360.8c0-15.148 8.024-25.656 16.474-32.528-12.936 5.015-23.917 9.272-24.227 9.392-11.244 4.627-26.301 19.188-26.301 40.794v48.675h34.054c0-27.47 0-53.826 0-66.333z" fill="#ff636e"/><path d="m229.701 337.665c-2.261-.876-32.303-12.51-51.717-20.029l-3.993 1.914h-84.917l-3.602-2.066-51.671 20.181c-11.245 4.627-26.301 19.187-26.301 40.793v48.675h40.522v77.977h167.457v-77.977h40.522c0-23.588 0-44.97 0-48.675 0-18.607-11.913-34.872-26.3-40.793z" fill="#80b4fb"/><path d="m41.522 360.8c0-15.234 8.114-25.771 16.617-32.641l-24.338 9.506c-11.245 4.627-26.301 19.187-26.301 40.793v48.675h34.022c0-27.47 0-53.826 0-66.333z" fill="#61a2f9"/><path d="m446.105 217.913-1.469-1.477h-17.531v30.719l.968 2h13.232c8.83 0 15.988-7.158 15.988-15.988 0-7.159-4.704-13.216-11.188-15.254z" fill="#ffcebe"/><path d="m314.316 217.763.002.015c-6.74 1.879-11.692 8.048-11.692 15.387 0 8.83 7.158 15.988 15.988 15.988h13.815l1.518-1.77v-31.042h-18.5z" fill="#ffcebe"/><path d="m442.766 216.435h-15.661v30.719l.968 2h13.232c.493 0 .979-.03 1.461-.074z" fill="#ffb1a0"/><path d="m318.288 233.165c0-7.339 4.952-13.508 11.692-15.387l-.002-.015 1.133-1.421h-15.661l-1.133 1.421.002.015c-6.74 1.879-11.692 8.048-11.692 15.387 0 8.83 7.158 15.988 15.988 15.988h13.815l.087-.102c-8.001-.875-14.229-7.65-14.229-15.886z" fill="#ffb1a0"/><path d="m320.863 19.914c-16.309-16.069-42.677-15.599-58.866.591l-4.222 4.222c-.98.98-2.569.98-3.549 0l-4.222-4.222c-16.189-16.189-42.558-16.659-58.866-.591-16.439 16.196-16.513 42.653-.224 58.943l61.388 61.388c2.045 2.044 5.352 2.045 7.397 0 13.571-13.571 59.03-59.03 61.388-61.388 16.289-16.29 16.215-42.747-.224-58.943z" fill="#ff7f87"/><g><path d="m237.541 78.856c-16.289-16.29-16.215-42.746.224-58.943 1.806-1.779 3.741-3.344 5.766-4.719-16.119-10.74-38.111-9.352-52.391 4.719-16.439 16.196-16.513 42.653-.224 58.943 2.358 2.357 47.817 47.816 61.388 61.388 2.045 2.044 5.352 2.044 7.397 0 4.213-4.213 11.499-11.499 19.614-19.615-18.028-18.027-40.149-40.147-41.774-41.773z" fill="#ff636e"/></g><path d="m48.022 426.133h-40.522v70.213c0 4.84 3.924 8.764 8.764 8.764h31.758z" fill="#ffb1a0"/><path d="m215.479 426.133v78.977h31.758c4.841 0 8.764-3.924 8.764-8.764 0-4.139 0-39.274 0-70.213z" fill="#ffcebe"/><path d="m296.523 426.133h-40.522v70.213c0 4.84 3.924 8.764 8.764 8.764h31.758c0-25.663 0-52.838 0-78.977z" fill="#ffb1a0"/><path d="m463.98 426.133v78.977h31.758c4.841 0 8.764-3.924 8.764-8.764 0-4.139 0-39.274 0-70.213z" fill="#ffcebe"/><path d="m161.748 311.348c-1.864-.72-3.102-2.514-3.108-4.522l-.013-15.984-3.304-3.375h-47.5l-2.992 3.303v16.026c0 2.003-.963 3.183-2.072 3.936l-17.288 6.752c6.052 18.574 23.313 33.099 46.973 33.099 21.202 0 39.223-13.836 45.54-32.948-8.686-3.363-15.247-5.904-16.236-6.287z" fill="#ffcebe"/><path d="m131.728 287.467h-23.904l-2.992 3.303v16.026c0 2.003-.963 3.183-2.072 3.936l-17.288 6.752c5.991 18.385 22.967 32.794 46.256 33.086z" fill="#ffb1a0"/><path d="m410.249 311.348c-1.864-.72-3.102-2.514-3.108-4.523l-.013-16.292-2.138-2.234h-49.167l-2.491 2.33v16.167c0 3.721-3.319 4.618-4.735 5.167-.314.122-6.062 2.35-14.049 5.447 5.733 18.521 22.75 33.119 46.193 33.198 21.036.071 38.975-14.062 45.088-33.225-8.358-3.238-14.616-5.662-15.58-6.035z" fill="#ffcebe"/><path d="m380.253 288.299h-24.429l-2.491 2.33v16.167c0 3.721-3.319 4.618-4.735 5.167-.314.122-6.062 2.35-14.049 5.447 5.693 18.391 22.515 32.907 45.704 33.187z" fill="#ffb1a0"/><path d="m177.984 210.467-3.994-2.667-3-13h-5.833l-24.333 17.667h-21.553l-1.815 2.93v35.184c0 19.569 11.71 37.834 30.762 45.392 18.717-6.539 32.185-24.362 32.185-45.28v-34.774z" fill="#ffdecf"/><g><path d="m118.174 250.693v-34.394l2.374-3.832h-35.076l-2.374 3.832v34.394c0 25.065 19.639 47.958 49.347 47.958 5.983 0 11.709-1.111 16.995-3.121-19.332-7.086-31.266-25.3-31.266-44.837z" fill="#ffcebe"/></g><path d="m177.287 153.17c-4.582.352-8.787-2.529-9.669-7.039-1.486-7.596-5.246-15.134-19.937-15.134h-50.968c-18.706 0-33.87 15.164-33.87 33.87v37.172c0 7.876 6.385 14.261 14.261 14.261h57.848c12.939 0 24.176-7.259 29.878-17.924.442-.827 1.697-.504 1.697.434 0 9.619 7.87 17.49 17.49 17.49 5.042 0 9.168-4.126 9.168-9.168v-38.79c0-9.14-7.973-15.782-15.898-15.172z" fill="#365e7d"/><g><path d="m91.593 202.038v-37.172c0-18.706 15.164-33.87 33.87-33.87h-28.75c-18.706 0-33.87 15.164-33.87 33.87v37.172c0 7.876 6.385 14.261 14.261 14.261h28.75c-7.876 0-14.261-6.385-14.261-14.261z" fill="#2b4d66"/></g><path d="m423.157 213.133h-21l-16.5-20.5h-9.833l-15.295 16.57v42.271c0 19.966 12.274 38.574 32.131 45.678 20.311-5.347 35.413-24.163 35.413-46.082v-33.894z" fill="#ffdecf"/><path d="m361.651 251.535v-43.548l-5.827 6.313h-21.275l-2.118 2.877v34.358c0 24.575 19.211 47.041 48.312 47.139 4.957.017 9.74-.76 14.24-2.2-20.53-6.232-33.332-24.88-33.332-44.939z" fill="#ffcebe"/><path d="m379.383 131.002c-36.237.466-65.067 30.672-65.067 66.912v19.865c1.37-.382 2.807-.602 4.299-.602h13.815 12.503c1.631 0 10.803-.747 10.129-.695 11.607-.889 21.643-9.656 24.409-21.05.089-.364.407-.623.782-.623s.694.26.782.623c2.764 11.367 12.709 20.033 24.144 21.003 8.306.704 8.418.743 9.917.743h12.978 13.232c1.705 0 3.344.272 4.885.766v-21.011c-.001-36.706-29.991-66.405-66.808-65.931z" fill="#365e7d"/><g><path d="m343.816 197.913c0-31.483 21.763-58.4 51.233-65.232-5.029-1.154-10.271-1.749-15.667-1.68-36.237.466-65.067 30.672-65.067 66.912v19.865c1.37-.382 2.807-.602 4.299-.602h13.815 11.386v-19.263z" fill="#2b4d66"/></g></g><g><path d="m481.057 330.116c-.049-.02-.098-.04-.146-.059l-13.95-5.402c6.534-8.193 9.05-18.621 8.993-27.279-.082-12.536-4.878-22.77-12.515-26.708h-.001c-8.117-4.185-9.748-7.798-9.748-12.271v-5.899c6.66-4.15 11.104-11.537 11.104-19.945s-4.444-15.795-11.104-19.945v-16.288c0-40.827-33.214-73.905-74.403-73.43-39.96.514-72.47 33.895-72.47 74.411v14.955c-6.983 4.075-11.689 11.645-11.689 20.297s4.706 16.221 11.689 20.297v5.544c0 4.474-1.631 8.088-9.75 12.275-7.999 4.124-13.142 15.295-13.1 28.46.031 10.086 3.12 19.09 8.595 25.901-2.806 1.088-10.212 3.959-12.971 5.029-.048.019-.096.038-.144.057-8.516 3.505-17.399 10.743-23.453 20.785-5.495-9.266-13.677-16.767-23.438-20.785-.048-.02-.183-.073-.23-.091l-.262-.102c-3.866-1.491-8.207.43-9.698 4.294-1.492 3.864.43 8.206 4.294 9.699l.252.098c10.739 4.454 21.59 17.487 21.59 33.831v40.175h-25.521v-35.523c0-4.142-3.357-7.5-7.5-7.5s-7.5 3.358-7.5 7.5c0 10.695-.001 102.917-.001 114.5h-152.459c0-5.771 0-110.014 0-114.5 0-4.142-3.357-7.5-7.5-7.5s-7.5 3.358-7.5 7.5v35.523h-25.521v-40.175c0-18.263 12.894-30.223 21.598-33.834l44.73-17.47c9.313 19.017 28.604 30.929 51.117 30.929 21.311 0 40.396-12.109 49.66-30.809 3.827 1.482 7.858 3.043 11.873 4.598 3.866 1.499 8.208-.423 9.703-4.285 1.496-3.862-.423-8.207-4.285-9.702-4.602-1.782-28.624-11.086-33.257-12.879l-.009-10.3c11.959-9.174 20.084-23.098 21.531-38.93h5.435c12.951 0 23.488-10.916 23.488-24.333 0-10.691-6.693-19.787-15.964-23.044.032-.42.064-.84.064-1.268v-38.791c0-13.533-11.72-23.596-23.973-22.649-.757.058-1.59-.269-1.733-1-2.75-14.064-11.934-21.195-27.297-21.195h-50.967c-22.812 0-41.37 18.559-41.37 41.37v37.172c0 3.277.732 6.385 2.035 9.175-6.302 4.37-10.462 11.809-10.462 20.231 0 13.417 10.537 24.333 23.488 24.333h5.438c1.416 14.767 8.953 29.267 21.489 38.893l.001 10.132-14.589 5.697c-.003.001-.007.003-.01.004l-51.661 20.177c-.042.016-.084.033-.126.05-14.905 6.132-30.947 23.685-30.947 47.728v117.888c0 8.968 7.296 16.264 16.265 16.264h230.972c3.228 0 6.232-.957 8.765-2.585 2.533 1.628 5.536 2.585 8.765 2.585h230.972.001c8.968 0 16.264-7.296 16.264-16.264 0-3.19 0-114.687 0-117.888-.002-20.603-12.728-40.23-30.947-47.729zm-287.961-89.953h-5.192v-17.437c.89-.214 2.402-.738 3.402-1.229h1.79c4.681 0 8.488 4.187 8.488 9.333s-3.808 9.333-8.488 9.333zm-122.752-75.91c0-14.541 11.83-26.37 26.37-26.37h50.968c10.026 0 11.537 3.761 12.576 9.075 1.586 8.105 9.164 13.719 17.604 13.077 3.572-.29 7.822 2.945 7.822 7.693v38.791c0 3.64-11.658 1.122-11.658-8.322 0-8.726-11.719-11.632-15.811-3.97-4.604 8.611-13.518 13.96-23.264 13.96-4.775 0-50.385 0-57.848 0-3.65 0-6.761-2.977-6.761-6.761v-37.173zm-8.427 66.577c0-4.621 3.076-8.473 7.096-9.206 2.097.839 4.31 1.34 6.585 1.509v17.029h-5.192c-4.681.001-8.489-4.186-8.489-9.332zm28.681 19.25c0-.033.001.983.001-26.894h44.354c10.511 0 20.649-4.018 28.262-11.156 2.419 3.625 5.765 6.576 9.689 8.534v29.515c0 22.52-18.397 40.458-40.459 40.458-25.178 0-41.847-19.579-41.847-40.457zm60.54 52.207.003 3.947c.014 4.893 2.822 9.53 8.114 11.578.28.108 8.739 3.384 8.792 3.404-6.972 12.949-20.526 21.254-35.602 21.254-16.162 0-30.05-8.208-37.077-21.412l10.121-3.953c2.718-1.062 6.844-4.785 6.844-10.923v-4.002c15.428 5.456 31.02 3.221 38.805.107zm158.989-69.735c0-4.788 3.936-8.488 8.488-8.488h6.315v16.977h-6.315c-4.573-.001-8.488-3.719-8.488-8.489zm29.804 15.988v-24.477c16.343 0 29.738-.594 40.331-14.113 5.878 7.486 14.657 12.528 24.283 13.344 10.768.918 7.827.77 16.027.77v24.477c0 26.566-20.029 42.021-39.672 42.021-.045 0-.089 0-.134 0-21.663-.072-40.835-15.543-40.835-42.022zm101.374-24.476c4.608 0 8.488 3.747 8.488 8.488 0 4.735-3.873 8.488-8.488 8.488h-5.732v-16.977h5.732zm-89.745 94.185c7.665-2.818 9.273-8.117 9.273-12.066v-4.035c11.482 4.137 25.846 4.867 38.806.048.002 2.839-1.147 12.037 7.902 15.533l8.417 3.26c-6.831 12.948-20.399 21.506-35.063 21.506-.042 0-.086 0-.127 0-16.014-.054-29.656-8.278-36.423-21.452.399-.156 6.815-2.645 7.215-2.794zm105.004-34.248c1.505.776 4.337 5.525 4.389 13.473.023 3.553-.628 14.818-9.212 21.287-13.418-5.197-23.013-8.913-37.1-14.368l-.002-10.711c11.564-9.242 19.135-22.596 20.65-37.642h3.399v2.356c.001 14.69 10.203 21.649 17.876 25.605zm-134.748-86.701c0-32.351 25.867-59.003 57.663-59.412 32.578-.449 59.21 25.809 59.21 58.431v12.745c-28.779 0-22.275.188-32.877-.716-8.148-.691-15.504-7.125-17.486-15.289-.909-3.767-4.245-6.364-8.073-6.364-3.841 0-7.158 2.611-8.071 6.356-1.506 6.212-6.113 11.397-11.726 13.835-5.907 2.57-16.306 2.177-38.639 2.177v-11.763zm-22.849 101.782c-.025-8.046 2.924-14.024 4.974-15.081 7.674-3.957 17.876-10.917 17.876-25.607v-2.353h3.352c1.444 15.503 9.357 29.032 20.664 37.812v10.525s-36.415 14.118-37.996 14.731c-8.143-5.977-8.859-16.65-8.87-20.027zm-13.879 44.933c25.843-10.019 23.061-8.94 45.217-17.529 9.022 18.995 28.034 30.933 50.412 31.008h.176c20.811 0 39.997-12.436 49.108-31.067l45.415 17.588c10.738 4.456 21.586 17.488 21.586 33.83v40.175h-25.522v-35.523c0-4.142-3.357-7.5-7.5-7.5s-7.5 3.358-7.5 7.5v114.5h-152.457c0-11.594-.001-103.828-.001-114.5 0-4.142-3.357-7.5-7.5-7.5s-7.5 3.358-7.5 7.5v35.523h-25.521v-40.175c0-18.256 12.884-30.214 21.587-33.83zm-270.088 151.718v-62.713h25.521v63.977h-24.256c-.698.001-1.265-.566-1.265-1.264zm232.236 1.265h-24.257v-63.978h25.521v62.713c.001.698-.566 1.265-1.264 1.265zm16.265-1.265v-62.713h25.521v63.977h-24.257c-.697.001-1.264-.566-1.264-1.264zm207.979 1.265v-63.978h25.521v62.713c0 .697-.567 1.264-1.265 1.264h-24.256z"/><path d="m247 144.935c4.962 4.961 13.037 4.963 18.003 0l20.168-20.168c2.93-2.929 2.93-7.677.001-10.606-2.93-2.929-7.679-2.929-10.606 0l-18.564 18.564-59.784-59.785c-13.368-13.369-13.289-35.022.185-48.297 13.264-13.066 34.93-12.819 48.3.552l4.219 4.218c1.891 1.893 4.405 2.935 7.08 2.935s5.189-1.042 7.077-2.932l4.223-4.222c13.37-13.371 35.038-13.618 48.299-.551 13.494 13.294 13.533 34.949.186 48.295l-16.447 16.448c-2.93 2.929-2.93 7.677-.001 10.606s7.678 2.929 10.606 0l16.446-16.446c19.264-19.262 19.148-50.465-.263-69.588-18.266-17.999-49.152-19.652-70.126 1.322-20.914-20.929-51.821-19.358-70.126-1.322-19.405 19.118-19.532 50.321-.264 69.588z"/></g></g></svg>