<svg height="512pt" viewBox="-11 0 512 512" width="512pt" xmlns="http://www.w3.org/2000/svg"><path d="m243 44.144531c-34.484375.511719-62.863281 28.433594-63.902344 62.902344-.820312 27.253906 15.160156 50.871094 38.363282 61.269531 4.28125 1.917969 7.085937 6.113282 7.085937 10.804688v16.117187h38.867187v-16.121093c0-4.667969 2.769532-8.867188 7.035157-10.773438 22.65625-10.128906 38.449219-32.863281 38.449219-59.289062 0-36.179688-29.597657-65.445313-65.898438-64.910157zm0 0" fill="#feca57"/><path d="m247.460938 168.316406c-23.199219-10.394531-39.183594-34.011718-38.363282-61.269531.894532-29.683594 22.074219-54.492187 49.953125-61.140625-5.140625-1.222656-10.515625-1.84375-16.050781-1.761719-34.484375.511719-62.863281 28.433594-63.902344 62.902344-.820312 27.253906 15.160156 50.871094 38.363282 61.269531 4.28125 1.917969 7.085937 6.113282 7.085937 10.804688v16.117187h30.003906v-16.117187c0-4.691406-2.804687-8.882813-7.089843-10.804688zm0 0" fill="#f4b537"/><path d="m243.980469 236.875c8.816406 0 15.960937-6.558594 15.960937-20.824219h-31.917968c-.003907 14.265625 7.144531 20.824219 15.957031 20.824219zm0 0" fill="#54a0ff"/><path d="m251.480469 216.050781h-23.457031c0 14.265625 7.144531 20.824219 15.960937 20.824219 4.644531 0 8.8125-1.839844 11.730469-5.652344-2.621094-3.421875-4.234375-8.425781-4.234375-15.171875zm0 0" fill="#338def"/><path d="m265.625 192.242188h-43.285156c-3.019532 0-5.472656 2.449218-5.472656 5.472656v14.128906c0 3.023438 2.449218 5.472656 5.472656 5.472656h43.285156c3.019531 0 5.46875-2.449218 5.46875-5.472656v-14.128906c0-3.023438-2.449219-5.472656-5.46875-5.472656zm0 0" fill="#e4eaf8"/><path d="m240.328125 211.84375v-14.128906c0-3.023438 2.449219-5.472656 5.472656-5.472656h-23.460937c-3.019532 0-5.472656 2.449218-5.472656 5.472656v14.128906c0 3.023438 2.449218 5.472656 5.472656 5.472656h23.460937c-3.019531 0-5.472656-2.449218-5.472656-5.472656zm0 0" fill="#d8dce5"/><path d="m126.164062 146.695312c-33.980468 0-61.527343 27.546876-61.527343 61.527344v25.039063c4.113281-3.8125 10.738281-5.882813 16.445312-5.121094v-3.066406c0-2.4375 2.082031-4.359375 4.496094-4.179688 23.789063 1.710938 47.222656-5.847656 65.527344-17.804687 1.707031-1.117188 3.972656-.839844 5.359375.652344 15.648437 16.820312 14.78125 16.171874 14.78125 18.367187v6.019531c6.257812-.9375 12.585937.996094 16.441406 4.582032v-24.488282c0-33.980468-27.542969-61.527344-61.523438-61.527344zm0 0" fill="#576574"/><path d="m93.261719 208.222656c0-29.050781 20.136719-53.382812 47.210937-59.835937-4.59375-1.09375-9.378906-1.691407-14.308594-1.691407-33.984374 0-61.527343 27.546876-61.527343 61.527344v25.039063c4.113281-3.8125 10.734375-5.882813 16.445312-5.121094v-3.066406c0-2.4375 2.082031-4.363281 4.496094-4.179688 2.566406.183594 5.128906.253907 7.679687.230469v-12.902344zm0 0" fill="#3e4b5a"/><path d="m171.894531 225.703125v33.902344c0 .367187-.019531.730469-.027343 1.09375 11.996093 1.816406 21.390624-6.851563 21.390624-17.496094 0-10.664063-9.402343-19.289063-21.363281-17.5zm0 0" fill="#ffbeab"/><path d="m80.730469 259.832031v-34.355469c-10.589844-1.414062-21.660157 6.710938-21.660157 17.726563 0 10.777344 9.503907 19.582031 21.6875 17.738281-.007812-.371094-.027343-.738281-.027343-1.109375zm0 0" fill="#ffbeab"/><path d="m187.71875 230.371094c-3.882812-3.644532-9.492188-5.613282-15.824219-4.664063v33.898438c0 .367187-.019531.730469-.027343 1.097656 6.347656.960937 11.964843-1.015625 15.851562-4.664063zm0 0" fill="#f7af9f"/><path d="m80.730469 256.414062c-3.636719-3.304687-5.839844-8.027343-5.839844-13.210937 0-5.035156 2.316406-9.460937 5.839844-12.652344v-5.074219c-10.589844-1.414062-21.660157 6.710938-21.660157 17.726563 0 10.777344 9.503907 19.582031 21.6875 17.738281-.007812-.371094-.027343-.738281-.027343-1.109375zm0 0" fill="#f7af9f"/><path d="m126.820312 303.164062c-9.941406 0-18.675781-2.730468-25.820312-7.296874v23.984374l25.707031 31.734376 25.710938-31.734376v-24.664062c-7.285157 5.023438-16.101563 7.976562-25.597657 7.976562zm0 0" fill="#ffbeab"/><path d="m129.621094 303.066406c-.925782.058594-1.859375.09375-2.800782.09375-9.941406 0-18.675781-2.726562-25.820312-7.292968v23.980468l25.707031 31.734375 2.914063-3.597656zm0 0" fill="#f7af9f"/><path d="m220.429688 344.640625-68.011719-26.339844-25.710938 31.734375-25.707031-31.734375-67.941406 26.339844s-25.152344 10.34375-25.152344 39.019531v112.496094c0 4.628906 3.75 8.382812 8.378906 8.382812h220.917969c4.628906 0 8.382813-3.753906 8.382813-8.382812 0-20.960938 0-86.550781 0-112.496094-.003907-28.675781-25.15625-39.019531-25.15625-39.019531zm0 0" fill="#e4eaf8"/><g fill="#d8dce5"><path d="m36.527344 496.15625c0-20.960938 0-98.953125 0-124.902344 0-18.871094 10.894531-29.800781 18.34375-35.070312l-21.8125 8.457031s-25.15625 10.34375-25.15625 39.019531v112.496094c0 4.628906 3.753906 8.382812 8.382812 8.382812h28.625c-4.628906 0-8.382812-3.753906-8.382812-8.382812zm0 0"/><path d="m157.75 366.34375 19.222656-38.53125-24.554687-9.511719-25.710938 31.734375 25.066407 17.800782c2.027343 1.441406 4.863281.730468 5.976562-1.492188zm0 0"/><path d="m95.703125 366.34375-19.222656-38.53125 24.554687-9.511719 25.710938 31.734375-25.066406 17.800782c-2.03125 1.441406-4.867188.730468-5.976563-1.492188zm0 0"/></g><path d="m126.742188 350.058594v-.023438l-.015626.011719-.015624-.011719v.023438l-18.230469 12.949218 8.617187 12.96875h19.257813l8.617187-12.96875zm0 0" fill="#ee5253"/><path d="m152.855469 473.460938-16.5-97.484376h-19.257813l-16.5 97.484376c-.171875 1.257812.195313 2.53125.980469 3.398437l25.132813 27.644531v.035156l.015624-.015624.015626.015624v-.035156l25.132812-27.644531c.785156-.867187 1.152344-2.140625.980469-3.398437zm0 0" fill="#ff6b6b"/><path d="m133.871094 361.234375 4.304687-3.054687-11.433593-8.121094v-.023438l-.015626.011719-.015624-.011719v.023438l-18.230469 12.949218 8.617187 12.96875h19.257813l1.820312-2.742187-5.101562-7.679687c-.945313-1.421876-.589844-3.332032.796875-4.320313zm0 0" fill="#d83941"/><path d="m123.496094 473.460938 14.679687-86.730469-1.820312-10.753907h-19.257813l-16.5 97.484376c-.175781 1.257812.195313 2.53125.980469 3.398437l25.132813 27.648437v.03125l.015624-.015624.015626.015624v-.03125l11.433593-12.578124-13.699219-15.070313c-.785156-.867187-1.152343-2.140625-.980468-3.398437zm0 0" fill="#ee5253"/><path d="m156.464844 201.421875c-1.386719-1.492187-3.652344-1.773437-5.359375-.65625-18.304688 11.960937-42.511719 19.519531-66.300781 17.808594-2.414063-.183594-4.496094 1.742187-4.496094 4.179687v36.753906c0 23.625 18.511718 45.203126 46.511718 45.203126 24.921876 0 45.199219-20.277344 45.199219-45.203126v-39.722656c0-2.195312.09375-1.542968-15.554687-18.363281zm0 0" fill="#ffcdbf"/><path d="m108.933594 259.507812v-42.210937c-7.925782 1.367187-16.050782 1.855469-24.128906 1.277344-2.414063-.183594-4.496094 1.742187-4.496094 4.179687v36.753906c0 23.625 18.511718 45.203126 46.511718 45.203126 4.828126 0 9.476563-.769532 13.84375-2.179688-19.546874-6.042969-31.730468-23.855469-31.730468-43.023438zm0 0" fill="#ffbeab"/><path d="m363.578125 146.695312c-33.980469 0-61.527344 27.546876-61.527344 61.527344v25.039063c4.113281-3.8125 10.738281-5.882813 16.449219-5.121094v-3.066406c0-2.4375 2.078125-4.359375 4.492188-4.179688 23.789062 1.710938 47.222656-5.847656 65.527343-17.804687 1.710938-1.117188 3.972657-.839844 5.359375.652344 15.648438 16.820312 14.78125 16.171874 14.78125 18.367187v6.019531c6.261719-.9375 12.585938.996094 16.445313 4.582032v-24.488282c0-33.980468-27.546875-61.527344-61.527344-61.527344zm0 0" fill="#576574"/><path d="m330.675781 208.222656c0-29.050781 20.136719-53.382812 47.214844-59.835937-4.597656-1.09375-9.382813-1.691407-14.3125-1.691407-33.980469 0-61.527344 27.546876-61.527344 61.527344v25.039063c4.113281-3.8125 10.734375-5.882813 16.445313-5.121094v-3.066406c0-2.4375 2.082031-4.363281 4.496094-4.179688 2.566406.183594 5.128906.253907 7.683593.230469zm0 0" fill="#3e4b5a"/><path d="m409.308594 225.703125v33.902344c0 .367187-.019532.730469-.027344 1.09375 11.996094 1.816406 21.394531-6.851563 21.394531-17.496094 0-10.664063-9.40625-19.289063-21.367187-17.5zm0 0" fill="#ffbeab"/><path d="m318.144531 259.832031v-34.355469c-10.589843-1.414062-21.660156 6.710938-21.660156 17.726563 0 10.777344 9.503906 19.582031 21.6875 17.738281-.007813-.371094-.027344-.738281-.027344-1.109375zm0 0" fill="#ffbeab"/><path d="m425.132812 230.371094c-3.882812-3.644532-9.492187-5.613282-15.824218-4.664063v33.898438c0 .367187-.019532.730469-.027344 1.097656 6.347656.960937 11.964844-1.015625 15.851562-4.664063zm0 0" fill="#f7af9f"/><path d="m318.144531 256.414062c-3.636719-3.304687-5.839843-8.027343-5.839843-13.210937 0-5.035156 2.316406-9.460937 5.839843-12.652344v-5.074219c-10.589843-1.414062-21.660156 6.710938-21.660156 17.726563 0 10.777344 9.503906 19.582031 21.6875 17.738281-.007813-.371094-.027344-.738281-.027344-1.109375zm0 0" fill="#f7af9f"/><path d="m364.234375 303.164062c-9.941406 0-18.675781-2.730468-25.820313-7.296874v23.984374l25.707032 31.734376 25.710937-31.734376v-24.664062c-7.285156 5.023438-16.101562 7.976562-25.597656 7.976562zm0 0" fill="#ffbeab"/><path d="m367.039062 303.066406c-.929687.058594-1.863281.09375-2.804687.09375-9.941406 0-18.675781-2.726562-25.820313-7.292968v23.980468l25.707032 31.734375 2.917968-3.597656zm0 0" fill="#f7af9f"/><path d="m457.84375 344.640625-68.011719-26.339844-25.710937 31.734375-25.707032-31.734375-67.941406 26.339844s-25.152344 10.34375-25.152344 39.019531v112.496094c0 4.628906 3.75 8.382812 8.382813 8.382812h220.914063c4.628906 0 8.382812-3.753906 8.382812-8.382812 0-20.960938 0-86.550781 0-112.496094 0-28.675781-25.15625-39.019531-25.15625-39.019531zm0 0" fill="#e4eaf8"/><path d="m273.941406 496.15625c0-20.960938 0-98.953125 0-124.902344 0-18.871094 10.894532-29.800781 18.34375-35.070312l-21.8125 8.457031s-25.15625 10.34375-25.15625 39.019531v112.496094c0 4.628906 3.753906 8.382812 8.382813 8.382812h28.625c-4.628907 0-8.382813-3.753906-8.382813-8.382812zm0 0" fill="#d8dce5"/><path d="m395.164062 366.34375 19.222657-38.53125-24.554688-9.511719-25.710937 31.734375 25.066406 17.800782c2.027344 1.441406 4.867188.730468 5.976562-1.492188zm0 0" fill="#d8dce5"/><path d="m333.117188 366.34375-19.222657-38.53125 24.554688-9.511719 25.710937 31.734375-25.066406 17.800782c-2.03125 1.441406-4.867188.730468-5.976562-1.492188zm0 0" fill="#d8dce5"/><path d="m364.15625 350.058594v-.023438l-.015625.011719-.015625-.011719v.023438l-18.230469 12.949218 8.617188 12.96875h19.257812l8.617188-12.96875zm0 0" fill="#ee5253"/><path d="m390.269531 473.460938-16.5-97.484376h-19.257812l-16.5 97.484376c-.171875 1.257812.195312 2.53125.980469 3.398437l25.132812 27.644531v.035156l.015625-.015624.015625.015624v-.035156l25.132812-27.644531c.785157-.867187 1.152344-2.140625.980469-3.398437zm0 0" fill="#ff6b6b"/><path d="m371.285156 361.234375 4.304688-3.054687-11.433594-8.121094v-.023438l-.015625.011719-.015625-.011719v.023438l-18.230469 12.949218 8.617188 12.96875h19.257812l1.820313-2.742187-5.101563-7.679687c-.945312-1.421876-.589843-3.332032.796875-4.320313zm0 0" fill="#d83941"/><path d="m360.910156 473.460938 14.679688-86.730469-1.820313-10.753907h-19.257812l-16.5 97.484376c-.175781 1.257812.195312 2.53125.980469 3.398437l25.132812 27.648437v.03125l.015625-.015624.015625.015624v-.03125l11.433594-12.578124-13.699219-15.070313c-.785156-.867187-1.152344-2.140625-.980469-3.398437zm0 0" fill="#ee5253"/><path d="m393.878906 201.421875c-1.386718-1.492187-3.648437-1.773437-5.359375-.65625-18.304687 11.960937-42.511719 19.519531-66.300781 17.808594-2.414062-.183594-4.496094 1.742187-4.496094 4.179687v36.753906c0 23.625 18.511719 45.203126 46.511719 45.203126 24.921875 0 45.199219-20.277344 45.199219-45.203126v-39.722656c0-2.195312.09375-1.542968-15.554688-18.363281zm0 0" fill="#ffcdbf"/><path d="m346.347656 259.507812v-42.210937c-7.925781 1.367187-16.050781 1.855469-24.128906 1.277344-2.414062-.183594-4.496094 1.742187-4.496094 4.179687v36.753906c0 23.625 18.511719 45.203126 46.511719 45.203126 4.828125 0 9.476563-.769532 13.84375-2.179688-19.546875-6.042969-31.730469-23.855469-31.730469-43.023438zm0 0" fill="#ffbeab"/><path d="m0 496.117188c0 8.757812 7.125 15.882812 15.882812 15.882812h220.914063c3.078125 0 5.945313-.894531 8.378906-2.417969 2.4375 1.523438 5.304688 2.417969 8.378907 2.417969h220.917968c8.753906 0 15.882813-7.125 15.882813-15.882812v-38.398438c0-4.144531-3.359375-7.5-7.503907-7.5-4.140624 0-7.5 3.355469-7.5 7.5v38.398438c0 .484374-.394531.882812-.878906.882812h-26.929687v-104.523438c0-4.144531-3.359375-7.5-7.503907-7.5-4.140624 0-7.5 3.355469-7.5 7.5v104.523438h-51.605468l13.757812-15.136719c2.265625-2.492187 3.335938-6.03125 2.863282-9.464843-.011719-.074219-.023438-.152344-.035157-.226563l-16.003906-94.558594 2.691406-4.050781c6.769531 4.808594 14.539063 2.066406 17.519531-3.910156.003907 0 .003907 0 .003907-.003906l16.175781-32.414063 36.980469 14.320313c1.0625.460937 20.464843 9.207031 20.464843 32.0625v39.097656c0 4.144531 3.359376 7.5 7.5 7.5 4.144532 0 7.5-3.355469 7.5-7.5v-39.097656c0-33.316407-28.585937-45.453126-29.800781-45.953126-.050781-.019531-.097656-.039062-.144531-.058593l-63.222656-24.484375v-12.683594c9.84375-7.964844 16.769531-19.398438 18.902344-32.425781 13.148437-1.824219 21.941406-12.65625 21.941406-24.847657 0-5.785156-1.996094-11.324218-5.570313-15.738281v-19.242187c0-38.0625-30.964843-69.027344-69.023437-69.027344-38.0625 0-69.027344 30.964844-69.027344 69.027344v19.746094c-3.613281 4.355468-5.566406 9.640624-5.566406 15.234374 0 12.40625 9.089844 23.167969 21.984375 24.882813 2.164062 12.722656 9.074219 24.910156 19.945312 33.246094v11.832031l-63.152343 24.484375c-.046876.015625-.09375.035156-.140626.054687-.808593.332032-13.738281 5.832032-22.300781 19.292969-8.558593-13.460937-21.488281-18.960937-22.300781-19.292969-.046875-.019531-.09375-.039062-.140625-.054687-7.5625-2.929687-55.832031-21.625-63.222656-24.484375v-12.6875c9.84375-7.964844 16.769531-19.398438 18.902343-32.425781 13.148438-1.824219 21.941407-12.65625 21.941407-24.847657 0-5.785156-1.996094-11.324218-5.570313-15.738281v-19.242187c0-38.0625-30.964844-69.027344-69.027344-69.027344-38.058593 0-69.023437 30.964844-69.023437 69.027344v19.746094c-3.613281 4.355468-5.566406 9.640624-5.566406 15.234374 0 12.40625 9.089843 23.167969 21.984375 24.882813 2.164062 12.722656 9.074218 24.910156 19.945312 33.246094v11.835937l-63.152344 24.480469c-.046874.019531-.09375.035156-.140624.054687-1.21875.5-29.804688 12.636719-29.804688 45.957032zm100.214844-136.765626-13.753906-27.558593 11.753906-4.550781 17.242187 21.28125c-9.050781 6.429687-14.683593 10.429687-15.242187 10.828124zm65.96875-27.558593-13.75 27.558593c-.167969-.117187-4.105469-2.914062-15.269532-10.84375l17.234376-21.277343zm-39.863282 27.414062 7.976563 5.664063-2.367187 3.5625h-11.214844l-2.367188-3.5625zm-3.289062 24.226563h6.582031l15.164063 89.59375-18.457032 20.304687-18.453124-20.304687zm240.964844 109.898437-18.457032-20.300781 15.164063-89.597656h6.585937l15.164063 89.59375zm-26.109375-133.980469-13.75-27.558593 11.753906-4.550781 17.242187 21.28125c-9.050781 6.429687-14.6875 10.429687-15.246093 10.828124zm31.714843 9.082032h-11.210937l-2.367187-3.5625 7.972656-5.664063 7.976562 5.664063zm20.503907-9.082032c-.273438-.195312-6.558594-4.660156-15.269531-10.84375l17.238281-21.277343 11.78125 4.5625zm26.683593-106.898437v-18.574219c3.789063 1.574219 6.242188 5.214844 6.242188 9.285156 0 4.003907-2.367188 7.683594-6.242188 9.289063zm-107.378906-44.269531c0-29.789063 24.234375-54.027344 54.023438-54.027344 29.789062 0 54.023437 24.238281 54.023437 54.027344v10.328125c-.234375-.042969-.46875-.085938-.703125-.125-.285156-4.40625-2.320312-5.769531-17.527344-22.113281 0 0 0 0 0-.003907-3.871093-4.15625-10.160156-4.953125-14.953124-1.820312-18.4375 12.042969-40.914063 18.09375-61.632813 16.605469-5.203125-.398438-9.953125 2.738281-11.769531 7.433593-.019532.003907-1.453125.285157-1.464844.289063v-10.59375zm-5.570312 34.980468c0-3.933593 2.765625-7.167968 6.238281-8.828124v18.121093c-3.839844-1.589843-6.238281-5.253906-6.238281-9.292969zm21.242187 16.308594v-33.265625c.195313.007813.390625.003907.585938.007813 22.273437.6875 45.433593-5.933594 64.453125-17.710938 6.375 6.835938 10.035156 10.671875 11.667968 12.539063 0 40.355469.003907 38.125-.023437 39.40625-.640625 24.894531-24.945313 42.855469-50.457031 34.789062-16.105469-5.140625-26.226563-20.183593-26.226563-35.765625zm57.105469 49.496094v6.636719l-18.191406 22.453125-18.226563-22.496094v-6.308594c11.042969 3.710938 24.480469 4.09375 36.417969-.285156zm-109.046875 42.585938 36.945313-14.324219 16.175781 32.417969v.003906c2.890625 5.792968 10.566406 8.851562 17.523437 3.910156l2.691406 4.050781-16.003906 94.558594c-.011718.074219-.023437.148437-.03125.222656-.476562 3.433594.589844 6.972657 2.859375 9.46875l13.757813 15.136719h-51.570313v-104.523438c0-4.144531-3.355469-7.5-7.5-7.5s-7.5 3.355469-7.5 7.5v104.523438h-26.929687c-.480469 0-.867188-.386719-.878906-.863281 0-.007813 0-.015625 0-.019531v-112.496094c0-.03125 0-.0625 0-.09375.050781-22.738282 19.210937-31.429688 20.460937-31.972656zm-35.464844 31.972656v.09375 112.496094.019531c-.011719.476562-.398437.863281-.878906.863281h-26.929687v-104.523438c0-4.144531-3.355469-7.5-7.5-7.5-4.140626 0-7.5 3.355469-7.5 7.5v104.523438h-51.605469l13.757812-15.136719c2.265625-2.492187 3.335938-6.03125 2.859375-9.464843-.007812-.074219-.019531-.152344-.035156-.226563l-16.003906-94.558594 2.691406-4.050781c6.875 4.882812 14.59375 1.957031 17.527344-3.910156v-.003906l16.171875-32.414063 36.984375 14.320313c1.054687.457031 20.410156 9.183593 20.460937 31.972656zm-58.558593-131.074219v-18.574219c3.71875 1.542969 6.238281 5.148438 6.238281 9.285156 0 4.003907-2.367188 7.683594-6.238281 9.289063zm-107.382813-44.269531c0-29.789063 24.234375-54.027344 54.023437-54.027344 29.789063 0 54.023438 24.238281 54.023438 54.027344v10.328125c-.230469-.042969-.46875-.085938-.703125-.125-.191406-2.960938-1.667969-4.867188-3.8125-7.339844-2.164063-2.496094-5.761719-6.226563-13.714844-14.773437-3.886719-4.1875-10.210937-4.925782-14.953125-1.824219-18.007812 11.761719-40.457031 18.128906-61.632812 16.605469-5.207032-.398438-9.953125 2.746093-11.765625 7.433593-.019531.003907-1.457031.285157-1.464844.289063zm-5.570313 34.980468c0-3.917968 2.753907-7.164062 6.242188-8.828124v18.121093c-3.859375-1.597656-6.242188-5.273437-6.242188-9.292969zm21.242188 16.308594v-33.265625c21.503906.777344 44.957031-5.269531 65.039062-17.703125 6.03125 6.46875 10.003907 10.632813 11.667969 12.539063 0 40.355469.003907 38.125-.023437 39.40625-.640625 24.917969-24.957032 42.851562-50.457032 34.789062-16.082031-5.132812-26.226562-20.132812-26.226562-35.765625zm57.105469 49.496094v6.636719l-18.191407 22.453125-18.222656-22.496094v-6.308594c11.285156 3.792969 24.546875 4.066406 36.414063-.285156zm-129.511719 74.652344c0-22.8125 19.21875-31.523438 20.46875-32.066406l36.945312-14.324219 16.175782 32.417969v.003906c2.945312 5.902344 10.671875 8.773437 17.523437 3.910156l2.691407 4.050781-16.003907 94.558594c-.015625.074219-.023437.148437-.035156.222656-.476563 3.4375.59375 6.976563 2.859375 9.46875l13.757812 15.136719h-51.570312v-104.523438c0-4.144531-3.355469-7.5-7.5-7.5s-7.5 3.355469-7.5 7.5v104.523438h-26.929688c-.484374 0-.882812-.398438-.882812-.882812zm0 0"/><path d="m327.046875 116.515625h18.300781c4.144532 0 7.5-3.359375 7.5-7.503906 0-4.140625-3.355468-7.5-7.5-7.5h-18.300781c-4.140625 0-7.5 3.359375-7.5 7.5 0 4.144531 3.359375 7.503906 7.5 7.503906zm0 0"/><path d="m160.621094 101.511719h-18.300782c-4.144531 0-7.5 3.359375-7.5 7.5 0 4.144531 3.355469 7.503906 7.5 7.503906h18.300782c4.140625 0 7.5-3.359375 7.5-7.503906 0-4.140625-3.359375-7.5-7.5-7.5zm0 0"/><path d="m190.296875 55.476562c2.929687-2.929687 2.929687-7.679687 0-10.609374l-12.941406-12.9375c-2.925781-2.929688-7.675781-2.929688-10.605469 0-2.929688 2.929687-2.929688 7.679687 0 10.609374l12.941406 12.9375c2.925782 2.925782 7.675782 2.929688 10.605469 0zm0 0"/><path d="m251.335938 25.800781v-18.300781c0-4.140625-3.359376-7.5-7.5-7.5-4.144532 0-7.5 3.359375-7.5 7.5v18.300781c0 4.140625 3.355468 7.5 7.5 7.5 4.140624 0 7.5-3.359375 7.5-7.5zm0 0"/><path d="m320.917969 31.929688c-2.929688-2.929688-7.675781-2.929688-10.605469 0l-12.941406 12.9375c-2.925782 2.929687-2.925782 7.679687 0 10.609374 2.933594 2.929688 7.679687 2.929688 10.609375 0l12.9375-12.941406c2.929687-2.929687 2.929687-7.675781 0-10.605468zm0 0"/><path d="m273.363281 175.152344c26.054688-11.648438 42.886719-37.609375 42.886719-66.136719 0-32.355469-21.75-61.03125-52.894531-69.734375-3.996094-1.117188-8.128907 1.214844-9.242188 5.207031-1.117187 3.988281 1.214844 8.125 5.203125 9.238281 24.691406 6.898438 41.933594 29.632813 41.933594 55.289063 0 22.621094-13.347656 43.207031-34.011719 52.441406-6.964843 3.113281-11.46875 10.03125-11.46875 17.621094v5.621094h-4.433593v-59.046875h8.457031c4.144531 0 7.503906-3.359375 7.503906-7.503906 0-4.140626-3.359375-7.5-7.503906-7.5h-31.917969c-4.144531 0-7.5 3.359374-7.5 7.5 0 4.144531 3.355469 7.503906 7.5 7.503906h8.460938v59.046875h-4.4375v-5.617188c0-7.582031-4.519532-14.511719-11.519532-17.648437-21.316406-9.554688-34.636718-30.828125-33.933594-54.199219.746094-24.722656 17.984376-46.714844 41.925782-53.484375 3.988281-1.125 6.304687-5.269531 5.179687-9.257812-1.128906-3.988282-5.277343-6.304688-9.257812-5.179688-30.171875 8.53125-51.902344 36.273438-52.84375 67.46875-.886719 29.46875 15.910156 56.292969 42.792969 68.339844 1.613281.722656 2.65625 2.277344 2.65625 3.960937v6.757813c-4.519532 2.03125-7.679688 6.566406-7.679688 11.832031v14.132813c0 6.777343 5.226562 12.347656 11.859375 12.914062 2.699219 13.484375 12.761719 19.617188 22.753906 19.617188 9.992188 0 20.058594-6.132813 22.753907-19.617188 6.632812-.566406 11.859374-6.136719 11.859374-12.914062v-14.132813c0-5.265625-3.160156-9.800781-7.679687-11.832031v-6.761719c.003906-1.679687 1.019531-3.222656 2.597656-3.925781zm-10.09375 24.546875h.179688v10.078125c-31.117188 0 31.335937 0-39.226563 0v-10.078125zm-19.4375 29.636719c-3.785156 0-5.949219-1.921876-7.140625-4.558594h14.285156c-1.191406 2.636718-3.359374 4.558594-7.144531 4.558594zm0 0"/></svg>