<svg height="512" viewBox="0 0 60 56" width="512" xmlns="http://www.w3.org/2000/svg"><g id="Page-1" fill="none" fill-rule="evenodd"><g id="014---Brain-Disease" fill-rule="nonzero"><path id="Shape" d="m59 27.5c.0028965 2.1078229-.7817228 4.1407002-2.2 5.7 0 .0055228-.0044772.01-.01.01-.7411243 3.9883976-3.4509232 7.3304828-7.2 8.88 3.48 3.12 4.22 9.37 4.37 11.86.0137058.2737686-.0855689.5411614-.2746112.739656-.1890424.1984945-.4512775.3106869-.7253888.310344h-3.05c-.4833625.0016499-.9012406-.3368313-1-.81-.29-1.5-1.41-4.69-5.91-6.19-6-2-7-4-7-8-1.7309776-.0002193-3.4468181-.3223633-5.06-.95-1.982789 2.3015187-5.0437547 3.3689132-8.0277201 2.7993596s-5.4365905-2.6893346-6.4322799-5.5593596c-4.7744843 1.7658595-10.14176204.1805325-13.19056131-3.8960816-3.04879927-4.0766142-3.0526399-9.6731236-.00943869-13.7539184-.18511746-.5269734-.27978552-1.0814577-.28-1.64.00153337-2.3879368 1.68819272-4.442899 4.03-4.91-.01996766-.196033-.02998052-.3929526-.03-.59 0-3.58985087 2.91014913-6.5 6.5-6.5.977492-.00320175 1.9425353.21923729 2.82.65 1.4419625-2.43048669 3.891154-4.09281514 6.6823166-4.53545797 2.7911626-.44264282 5.6344957.38035867 7.7576834 2.24545797.9894399-1.58911021 2.7836605-2.49241515 4.6494774-2.3407912s3.4906461 1.33277492 4.2105226 3.0607912c.4581686-.05214319.9188752-.07885082 1.38-.08 6.2404004-.00090447 11.4399667 4.78130536 11.96 11h.04c1.780634-.0009583 3.4274152.9451353 4.3234723 2.4838816s.9061613 3.4379249.0265277 4.9861184c1.0750001 1.456431 1.653443 3.2198054 1.65 5.03z" fill="#e91e63"/><path id="Shape" d="m57.35 22.47c.8796336-1.5481935.8695294-3.4473721-.0265277-4.9861184s-2.5428383-2.4848399-4.3234723-2.4838816h-.04c-.5200333-6.21869464-5.7195996-11.00090447-11.96-11-.4611248.00114918-.9218314.02785681-1.38.08-.9853814-2.39286378-3.6409361-3.63041227-6.107-2.846 1.4038436.44552062 2.5403264 1.48653448 3.107 2.846.4581686-.05214319.9188752-.07885082 1.38-.08 6.2404004-.00090447 11.4399667 4.78130536 11.96 11h.04c1.780634-.0009583 3.4274152.9451353 4.3234723 2.4838816s.9061613 3.4379249.0265277 4.9861184c2.3917065 3.252344 2.1617161 7.739248-.55 10.73 0 .0055228-.0044772.01-.01.01-.7411243 3.9883976-3.4509232 7.3304828-7.2 8.88 3.48 3.12 4.22 9.37 4.37 11.86.0137058.2737686-.0855689.5411614-.2746112.739656-.1890424.1984945-.4512775.3106869-.7253888.310344h3c.2741113.0003429.5363464-.1118495.7253888-.310344.1890423-.1984946.288317-.4658874.2746112-.739656-.15-2.49-.89-8.74-4.37-11.86 3.7490768-1.5495172 6.4588757-4.8916024 7.2-8.88.0055228 0 .01-.0044772.01-.01 2.7117161-2.990752 2.9417065-7.477656.55-10.73z" fill="#ad1457"/><circle id="Oval" cx="30" cy="22" fill="#a4c400" r="10"/><path id="Shape" d="m30 12c-.5024253.0040337-1.0038371.045818-1.5.125 4.8867805.7347638 8.5012202 4.9332896 8.5012202 9.875s-3.6144397 9.1402362-8.5012202 9.875c3.710451.5677523 7.4261819-.9912669 9.6206899-4.0365787s2.4977618-7.0634251.7851783-10.4036118c-1.7125836-3.3401866-5.152234-5.4392346-8.9058682-5.4348095z" fill="#90ac00"/><circle id="Oval" cx="27.5" cy="18.5" fill="#007900" r="2.5"/><circle id="Oval" cx="29.5" cy="26.5" fill="#007900" r="2.5"/><circle id="Oval" cx="35" cy="21" fill="#007900" r="2"/><g fill="#000"><path id="Shape" d="m59 20c-.0060655-2.9826209-2.202099-5.5079529-5.155-5.928-.9817039-6.34427258-6.4253211-11.03650532-12.845-11.072-.255 0-.523.03-.784.045-1.0638097-1.87989451-3.0559791-3.04288451-5.216-3.045-1.6814349-.00307837-3.2854014.70660597-4.414 1.953-2.2644363-1.61962372-5.0809437-2.27009393-7.8262731-1.80747176-2.7453294.46262216-5.1931246 2.00019285-6.8017269 4.27247176-2.2661363-.79084428-4.7740736-.44697611-6.7437103.92464324-1.96963668 1.37161935-3.16203275 3.60459643-3.2062897 6.00435676-2.9450032.9898427-4.61261357 4.0990952-3.808 7.1-1.43619755 2.0712603-2.20392674 4.5325303-2.2 7.053-.00315918 3.9187725 1.83307712 7.6118431 4.95946769 9.9745682 3.12639058 2.3627251 7.18044031 3.1211543 10.94953231 2.0484318 1.3060566 2.8101569 3.9043715 4.8035376 6.9569043 5.3372125s6.1730543-.4598805 8.3550957-2.6602125c1.2280982.4174766 2.5056724.6719828 3.8.757.185 3.74 1.623 5.982 7.659 7.994 3.919 1.306 4.965 3.958 5.239 5.423.1864434.9497655 1.02213 1.6325929 1.99 1.626h3.051c.551341.0009443 1.0786167-.2257532 1.4572421-.6265282.3786255-.400775.5750122-.9400743.5427579-1.4904718-.149-2.4-.814-7.957-3.711-11.485 3.3342266-1.8221194 5.6995602-5.0170931 6.469-8.738 2.7251289-3.1727276 3.043128-7.758502.782-11.277.3269755-.7520695.4971101-1.562931.5-2.383zm-2.926 12.512-.023.024c-1.4228925 1.5634741-3.4369915 2.4575004-5.551 2.464-1.1833862.0041068-2.3500974-.2789923-3.4-.825-.4764419-.2458999-.9236058-.5447919-1.333-.891 1.3342405-1.5260618 1.6150637-3.7066871.711-5.521-.158024-.3224865-.4768371-.5354742-.8352525-.5580026-.3584153-.0225283-.7013887.1488625-.8985495.4490237-.1971608.3001611-.2182297.6829949-.055198 1.0029789.2056147.4177762.3120428.8773679.311 1.343-.0005565.981387-.4826711 1.9000208-1.29 2.458-.75576.5216067-1.7077884.6710166-2.587.406-.3409426-.126974-.7239456-.0587613-1.0000865.1781151s-.4018451.6050378-.328235.9613323c.07361.3562946.3349186.6444996.6823215.7525526.490713.1648632 1.0053436.2473123 1.523.244.7304444-.001471 1.451454-.1650728 2.111-.479.6227307.5734399 1.3224878 1.0571104 2.079 1.437 2.7114074 1.3974505 5.9330737 1.3888714 8.637-.023-1.565434 3.1430362-4.5474592 5.3409447-8.013 5.906-.5164685.0807281-.8836179.5456149-.8424633 1.066732s.4767254.92261.9994633.921268c.0536029.0001459.1071237-.0042027.16-.013.7507555-.1229083 1.4890252-.312663 2.206-.567 2.84 2.985 3.482 8.462 3.623 10.751h-3.071c-.286-1.527-1.5-5.261-6.573-6.952-5.157-1.719-6.147-3.28-6.292-6.091h.054c1.1311433-.0778738 2.2497094-.2845435 3.334-.616.5279842-.1620956.8245955-.7215158.6625-1.2495-.1620956-.5279842-.7215158-.8245956-1.2495-.6625-.9453134.288899-1.9207271.4680771-2.907.534-1.9119886.1490682-3.8327774-.1402814-5.616-.846-.3955027-.132908-.8321894-.024029-1.119.279-1.7504451 2.031458-4.4528333 2.9729559-7.0866233 2.4689425-2.63379-.5040135-4.797637-2.3767351-5.6743767-4.9109425-.2801675-.7877959-.4229102-1.6178688-.422-2.454-.0035599-.4775085.0426903-.9540864.138-1.422.0014943-.0296478.0014943-.0593522 0-.089.0065099-.0645028.0065099-.1294972 0-.194-.0008116-.0505747-.0051555-.1010308-.013-.151-.007-.033 0-.066-.009-.1-.0756925-.2542279-.2492907-.4679667-.4825942-.5941832-.2333036-.1262165-.5071955-.1545684-.7614058-.0788168-.2829902.0845326-.5766559.1279763-.872.129-1.6568542 0-3-1.3431458-3-3v-.04c-.0007638-.2631596-.1070133-.5150246-.2949661-.6992183-.1879527-.1841937-.4419126-.2853339-.7050339-.2807817-.5559632.0098307-1.00117934.4639512-1 1.02.0033061 2.7600532 2.2399468 4.9966939 5 5h.024c-.008.167-.024.33-.024.5.0019247.7190295.0868196 1.435435.253 2.135-3.1564657.8542246-6.53070322.1902905-9.12822914-1.796122-2.59752591-1.9864125-4.12224185-5.0688674-4.12477086-8.338878-.0030005-1.7088718.41607319-3.3920366 1.22-4.9.45947627.620486 1.03472539 1.1461564 1.694 1.548.30635524.1838132.68750232.1902249.9998668.0168201.31236449-.1734049.50849078-.500282.51450001-.8575s-.17901155-.690507-.48536681-.8743201c-1.5446595-.9237013-2.28220478-2.7652776-1.80217873-4.4998588.48002604-1.7345813 2.05940272-2.9349752 3.85917873-2.9331412 1.26198765-.0046623 2.4505888.5926098 3.2 1.608.3313709.4418278.9581722.5313708 1.4.2.4418278-.3313709.5313708-.9581722.2-1.4-1.1197949-1.5144118-2.89155009-2.4078959-4.775-2.408.2611652-2.82985344 2.6331235-4.99602541 5.475-5 .4834299.00291273.9643207.07017018 1.43.2-.2411135.52585762-.438449 1.07070417-.59 1.629-.067243.25673553-.0296719.52967133.1044379.75868952.1341097.2290182.3537572.39533271.6105621.46231048.2567355.06724301.5296713.02967186.7586895-.10443789s.3953327-.35375725.4623105-.61056211c.1976831-.76164832.5005994-1.49201332.9-2.17 1.5436419-2.57497562 4.3217963-4.15485178 7.324-4.165 1.7971313-.00125224 3.5481284.56887241 5 1.628-.1669022.37645659-.2942521.76923056-.38 1.172-.1104569.54123904.238761 1.06954301.78 1.17999996s1.069543-.23876093 1.18-.77999996c.0914034-.46743549.2712968-.91309602.53-1.313.7239257-1.17680555 2.0083644-1.89177183 3.39-1.887 2.209139 0 4 1.790861 4 4 0 .55228475.4477153 1 1 1s1-.44771525 1-1c-.0017144-.33527642-.031822-.6698053-.09-1h.09c5.3406646.02805197 9.8994163 3.86620364 10.837 9.124-.8832585.1697345-1.7165022.5376336-2.437 1.076-.4418278.3313708-.5313708.9581722-.2 1.4s.9581722.5313708 1.4.2c1.5145836-1.1374613 3.6193316-1.056663 5.0422552.1935651 1.4229235 1.2502281 1.7738689 3.3270839.8407448 4.9754349-.4153691.7235303-1.0439981 1.3011705-1.8 1.654-.50037.2341687-.7161687.82963-.482 1.33s.82963.7161687 1.33.482c.6328696-.3020093 1.2081691-.712164 1.7-1.212 1.3450463 2.7403317.8843137 6.0236957-1.163 8.288z"/><path id="Shape" d="m43 21h-2.051c-.11456-1.248688-.4437221-2.4682456-.973-3.605l1.782-1.029c.3119508-.1773616.5049532-.5082732.5057421-.8671183s-.1907567-.6906021-.5019247-.8693336c-.3111679-.1787314-.694247-.1770325-1.0038174.0044519l-1.782 1.029c-.7244186-1.0223053-1.6166947-1.9145814-2.639-2.639l1.029-1.782c.1814844-.3095704.1831833-.6926495.0044519-1.0038174-.1787315-.31116797-.5104885-.50271359-.8693336-.5019247-.3588451.00078888-.6897567.19379132-.8671183.5057421l-1.034 1.782c-1.135197-.5287249-2.3530163-.8578744-3.6-.973v-2.051c0-.55228475-.4477153-1-1-1s-1 .44771525-1 1v2.051c-1.248688.11456-2.4682456.4437221-3.605.973l-1.029-1.782c-.1773616-.31195078-.5082732-.50495322-.8671183-.5057421-.3588451-.00078889-.6906021.19075673-.8693336.5019247-.1787314.3111679-.1770325.694247.0044519 1.0038174l1.029 1.782c-1.0223053.7244186-1.9145814 1.6166947-2.639 2.639l-1.782-1.029c-.3095704-.1814844-.6926495-.1831833-1.0038174-.0044519-.311168.1787315-.5027136.5104885-.5019247.8693336s.1937913.6897567.5057421.8671183l1.782 1.034c-.5287249 1.135197-.8578744 2.3530163-.973 3.6h-2.051c-.5522847 0-1 .4477153-1 1s.4477153 1 1 1h2.051c.11456 1.248688.4437221 2.4682456.973 3.605l-1.782 1.029c-.3119508.1773616-.5049532.5082732-.5057421.8671183s.1907567.6906021.5019247.8693336c.3111679.1787314.694247.1770325 1.0038174-.0044519l1.782-1.029c.7244186 1.0223053 1.6166947 1.9145814 2.639 2.639l-1.029 1.782c-.1814844.3095704-.1831833.6926495-.0044519 1.0038174.1787315.311168.5104885.5027136.8693336.5019247s.6897567-.1937913.8671183-.5057421l1.034-1.782c1.135197.5287249 2.3530163.8578744 3.6.973v2.051c0 .5522847.4477153 1 1 1s1-.4477153 1-1v-2.051c1.2469837-.1151256 2.464803-.4442751 3.6-.973l1.029 1.782c.1773616.3119508.5082732.5049532.8671183.5057421s.6906021-.1907567.8693336-.5019247c.1787314-.3111679.1770325-.694247-.0044519-1.0038174l-1.029-1.782c1.0223053-.7244186 1.9145814-1.6166947 2.639-2.639l1.782 1.029c.3095704.1814844.6926495.1831833 1.0038174.0044519.311168-.1787315.5027136-.5104885.5019247-.8693336s-.1937913-.6897567-.5057421-.8671183l-1.782-1.029c.531004-1.1364405.8618611-2.3560108.978-3.605h2.051c.5522847 0 1-.4477153 1-1s-.4477153-1-1-1zm-13 10c-4.9705627 0-9-4.0294373-9-9s4.0294373-9 9-9 9 4.0294373 9 9c-.006061 4.9680501-4.0319499 8.993939-9 9z"/><path id="Shape" d="m31 18.5c0-1.4156179-.8527476-2.6918449-2.160608-3.2335784s-2.8132727-.2422883-3.8142657.7587047-1.3004382 2.5064053-.7587047 3.8142657 1.8179605 2.160608 3.2335784 2.160608c1.9329966 0 3.5-1.5670034 3.5-3.5zm-5 0c0-.8284271.6715729-1.5 1.5-1.5s1.5.6715729 1.5 1.5-.6715729 1.5-1.5 1.5-1.5-.6715729-1.5-1.5z"/><path id="Shape" d="m29.5 23c-1.9329966 0-3.5 1.5670034-3.5 3.5s1.5670034 3.5 3.5 3.5 3.5-1.5670034 3.5-3.5-1.5670034-3.5-3.5-3.5zm0 5c-.8284271 0-1.5-.6715729-1.5-1.5s.6715729-1.5 1.5-1.5 1.5.6715729 1.5 1.5-.6715729 1.5-1.5 1.5z"/><path id="Shape" d="m35 18c-1.6568542 0-3 1.3431458-3 3s1.3431458 3 3 3 3-1.3431458 3-3-1.3431458-3-3-3zm0 4c-.5522847 0-1-.4477153-1-1s.4477153-1 1-1 1 .4477153 1 1-.4477153 1-1 1z"/></g></g></g></svg>