<svg height="512" viewBox="0 0 64 64" width="512" xmlns="http://www.w3.org/2000/svg"><g id="Filled_outline" data-name="Filled outline"><path d="m49 3a10.987 10.987 0 0 0 -8.156 18.363l-.844 7.637 8-4h1a11 11 0 0 0 0-22z" fill="#d9176c"/><circle cx="53" cy="11" fill="#da1c4b" r="2"/><circle cx="45" cy="17" fill="#da1c4b" r="2"/><path d="m18 45h2a2 2 0 0 1 2 2v4a2 2 0 0 1 -2 2h-2a4 4 0 0 1 -4-4 4 4 0 0 1 4-4z" fill="#394d5c"/><path d="m30 51a10.343 10.343 0 0 1 -4 1 10.343 10.343 0 0 1 -4-1v-4a10.343 10.343 0 0 1 4-1 10.343 10.343 0 0 1 4 1z" fill="#7d8d9c"/><path d="m42 46v6c2.107.263 4-.875 4-3 0-2.125-1.893-3.263-4-3z" fill="#5a6470"/><path d="m38 46.333v5.334l4 .333v-6z" fill="#394d5c"/><path d="m34 51.333 4 .334v-5.334l-4 .334z" fill="#5a6470"/><path d="m34 46.667-4 .333v4l4 .333z" fill="#394d5c"/><path d="m26 46s2.5-19.167 10-14c7.253 5-10 14-10 14z" fill="#f9bb4b"/><path d="m26 46s-11.333-13.583-3-15c7.887-1.341 3 15 3 15z" fill="#ffd782"/><path d="m50.3 12.285-1.008 1.008 1.414 1.414 1.009-1.007a2.746 2.746 0 0 0 .285.117v1.183h2v-1.184a2.746 2.746 0 0 0 .285-.117l1.008 1.008 1.414-1.414-1.007-1.008a2.746 2.746 0 0 0 .116-.285h1.184v-2h-1.184a2.746 2.746 0 0 0 -.117-.285l1.008-1.008-1.414-1.414-1.008 1.007a2.746 2.746 0 0 0 -.285-.116v-1.184h-2v1.184a2.746 2.746 0 0 0 -.285.117l-1.008-1.008-1.414 1.414 1.007 1.008a2.746 2.746 0 0 0 -.117.285h-1.183v2h1.184a2.746 2.746 0 0 0 .116.285zm2.7-2.285a1 1 0 1 1 -1 1 1 1 0 0 1 1-1z"/><path d="m42.707 20.707 1.008-1.007a2.746 2.746 0 0 0 .285.117v1.183h2v-1.184a2.746 2.746 0 0 0 .285-.117l1.008 1.008 1.414-1.414-1.007-1.008a2.746 2.746 0 0 0 .116-.285h1.184v-2h-1.184a2.746 2.746 0 0 0 -.117-.285l1.008-1.008-1.414-1.414-1.008 1.007a2.746 2.746 0 0 0 -.285-.116v-1.184h-2v1.184a2.746 2.746 0 0 0 -.285.117l-1.008-1.008-1.414 1.414 1.007 1.008a2.746 2.746 0 0 0 -.117.285h-1.183v2h1.184a2.746 2.746 0 0 0 .117.285l-1.008 1.008zm2.293-4.707a1 1 0 1 1 -1 1 1 1 0 0 1 1-1z"/><path d="m43 9h2v2h-2z"/><path d="m46 6h2v2h-2z"/><path d="m53 17h2v2h-2z"/><path d="m50 20h2v2h-2z"/><path d="m39.006 28.89a1 1 0 0 0 1.441 1l7.789-3.89h.764a12.032 12.032 0 1 0 -9.2-4.312zm-.006-14.89a10 10 0 1 1 10 10h-1a1 1 0 0 0 -.447.105l-6.353 3.179.643-5.811a1 1 0 0 0 -.252-.781 9.969 9.969 0 0 1 -2.591-6.692z"/><path d="m20 44h-2a5.006 5.006 0 0 0 -5 5 4.952 4.952 0 0 0 .2 1.33l-8.755 5.838 1.11 1.664 8.569-5.713a4.97 4.97 0 0 0 3.876 1.881h2a2.99 2.99 0 0 0 2.663-1.649c.188.068.392.134.614.2l-3.058 3.823a1 1 0 0 0 -.2.821l1 5 1.96-.392-.908-4.543 3.429-4.288c.165.012.33.028.5.028s.357-.017.535-.03l-1.464 3.658a1.012 1.012 0 0 0 -.071.372v5h2v-4.808l1.875-4.685c.281-.089.536-.177.754-.261l3.371 5.054v4.7h2v-5a1.006 1.006 0 0 0 -.168-.555l-2.851-4.276 1.817.151 4.128 4.953-.906 4.527 1.96.392 1-5a1 1 0 0 0 -.211-.836l-3.169-3.803s5.8.485 6 .485a4.688 4.688 0 0 0 3.118-1.1 4 4 0 0 0 0-5.88 4.85 4.85 0 0 0 -3.776-1.054c-.007 0-.013 0-.02 0l-11.739.979a12.3 12.3 0 0 0 -1.271-.479c3.565-2.15 9.622-6.37 9.865-10.348a4.4 4.4 0 0 0 -2.2-3.979 4.659 4.659 0 0 0 -4.736-.693 8.225 8.225 0 0 0 -3.54 3.875 6.268 6.268 0 0 0 -1.31-3.1 4.235 4.235 0 0 0 -4.149-1.24 4.24 4.24 0 0 0 -3.619 2.632c-1.346 3.646 2.779 9.77 4.9 12.582a12.043 12.043 0 0 0 -1.454.421 2.993 2.993 0 0 0 -2.669-1.654zm1 7a1 1 0 0 1 -1 1h-2a3 3 0 0 1 0-6h2a1 1 0 0 1 1 1zm22-4.015a2.51 2.51 0 0 1 1.389.575 2 2 0 0 1 0 2.88 2.51 2.51 0 0 1 -1.389.575zm-4 .268 2-.166v3.826l-2-.166zm-4 .334 2-.167v3.16l-2-.167zm-4 .333 2-.167v2.494l-2-.167zm-2.72-7.927c.955-3.372 2.406-6.81 4.366-7.682a2.151 2.151 0 0 1 .888-.192 3.4 3.4 0 0 1 1.9.7 2.5 2.5 0 0 1 1.343 2.208c-.149 2.446-3.939 5.525-7.292 7.734l4.335-6.193-1.638-1.146-4.082 5.84c.064-.414.125-.836.18-1.269zm-7.191-6.655c.1-.264.393-1.066 2.079-1.352a4.262 4.262 0 0 1 .712-.065 1.958 1.958 0 0 1 1.6.658c1.088 1.228 1.168 4.072.818 7.016q-.172.618-.32 1.213l-1-5-1.96.392 1.118 5.593c-2.014-3.081-3.724-6.621-3.047-8.455zm1.911 14.317a8.691 8.691 0 0 1 3-.655 8.691 8.691 0 0 1 3 .655v2.69a8.691 8.691 0 0 1 -3 .655 8.691 8.691 0 0 1 -3-.655z"/><path d="m17 48h2v2h-2z"/><path d="m7 36h3a1 1 0 0 1 1 1v4h2v-4a3 3 0 0 0 -3-3h-3a1 1 0 0 1 -1-1v-3h-2v3a3 3 0 0 0 3 3z"/><path d="m12 25h2a1 1 0 0 1 1 1v7h2v-7a3 3 0 0 0 -3-3h-2a1 1 0 0 1 -1-1v-3h-2v3a3 3 0 0 0 3 3z"/><path d="m4 26h2v2h-2z"/><path d="m57 37v-3h-2v3a1 1 0 0 1 -1 1h-5a3 3 0 0 0 -3 3v3h2v-3a1 1 0 0 1 1-1h5a3 3 0 0 0 3-3z"/><path d="m50 33v-3h-2v3a1 1 0 0 1 -1 1h-2a3 3 0 0 0 -3 3v3h2v-3a1 1 0 0 1 1-1h2a3 3 0 0 0 3-3z"/><path d="m55 30h2v2h-2z"/></g></svg>