<svg id="Layer_2" enable-background="new 0 0 64 64" height="512" viewBox="0 0 64 64" width="512" xmlns="http://www.w3.org/2000/svg"><g><g><g><path d="m30 8h4v4h-4z" fill="#b27946"/></g><g><path d="m30 1h4v3h-4z" fill="#b27946"/></g><g><path d="m30 12h4v4h-4z" fill="#cf9e76"/></g><g><path d="m38 36c-1.97-.66-3.77-1.77-5.24-3.24l-.76-.76-.76.76c-1.47 1.47-3.27 2.58-5.24 3.24v-2-3c2.45-1.23 4-3.73 4-6.47v-4.53h4v4.53c0 2.74 1.55 5.24 4 6.47v3z" fill="#cf9e76"/></g><g><path d="m30 16h4v4h-4z" fill="#b27946"/></g><g><path d="m30 4h4v4h-4z" fill="#cf9e76"/></g><g><path d="m44.93 19.12 4.98 2.88c-1.06.05-1.91.93-1.91 2 0 1.1.9 2 2 2s2-.9 2-2c0-.27-.05-.52-.15-.76 6.33 4.47 10.15 11.76 10.15 19.6v11.16c0 4.42-3.58 8-8 8h-10c-3.31 0-6-2.69-6-6v-8-12-2-3-9.06c0-2.18 1.76-3.94 3.94-3.94.69 0 1.38.18 1.98.53z" fill="#ef7385"/></g><g><path d="m26 31v3 2 20c0 3.31-2.69 6-6 6h-10c-4.42 0-8-3.58-8-8v-11.16c0-8.57 4.56-16.48 11.98-20.77l6.1-3.54c.6-.35 1.29-.53 1.98-.53 2.18 0 3.94 1.76 3.94 3.94z" fill="#ef7385"/></g><g><circle cx="50" cy="4" fill="#5cd6b3" r="2"/></g><g><circle cx="40" cy="14" fill="#5cd6b3" r="2"/></g><g><path d="m50 14c0 1.54 1.16 2.81 2.65 2.98l.01.01c-.71.63-1.64 1.01-2.66 1.01-1.1 0-2.1-.45-2.83-1.17-.72-.73-1.17-1.73-1.17-2.83s.45-2.1 1.17-2.83c.73-.72 1.73-1.17 2.83-1.17 1.02 0 1.95.38 2.66 1.02-1.5.17-2.66 1.44-2.66 2.98z" fill="#37bc9b"/></g><g><circle cx="60" cy="14" fill="#5cd6b3" r="2"/></g><g><path d="m52.65 16.98c-1.49-.17-2.65-1.44-2.65-2.98s1.16-2.81 2.66-2.98h.01c.05.05.11.1.16.15.72.73 1.17 1.73 1.17 2.83 0 1.19-.52 2.26-1.34 2.99z" fill="#5cd6b3"/></g><g><path d="m49.91 22h.09c.83 0 1.55.52 1.85 1.24.1.24.15.49.15.76 0 1.1-.9 2-2 2s-2-.9-2-2c0-1.07.85-1.95 1.91-2z" fill="#5cd6b3"/></g><g><circle cx="56" cy="55" fill="#5cd6b3" r="2"/></g><g><path d="m43 50c1.66 0 3-1.34 3-3 0-1.16-.65-2.15-1.6-2.66.49-.22 1.03-.34 1.6-.34 1.1 0 2.1.45 2.83 1.17.72.73 1.17 1.73 1.17 2.83s-.45 2.1-1.17 2.83c-.73.72-1.73 1.17-2.83 1.17s-2.1-.45-2.83-1.17c-.25-.25-.47-.54-.64-.85l.01-.01c.15.02.3.03.46.03z" fill="#37bc9b"/></g><g><path d="m46 47c0 1.66-1.34 3-3 3-.16 0-.31-.01-.46-.03l-.01.01c-.34-.59-.53-1.26-.53-1.98 0-1.1.45-2.1 1.17-2.83.35-.35.77-.63 1.23-.83.95.51 1.6 1.5 1.6 2.66z" fill="#5cd6b3"/></g><g><circle cx="54" cy="38" fill="#5cd6b3" r="3"/></g></g><path d="m57.184 15c.414 1.161 1.514 2 2.816 2 1.654 0 3-1.346 3-3s-1.346-3-3-3c-1.302 0-2.402.839-2.816 2h-2.285c-.13-.637-.384-1.228-.732-1.753l1.54-1.54-1.414-1.414-1.54 1.54c-.524-.348-1.116-.602-1.753-.732v-2.285c1.161-.414 2-1.514 2-2.816 0-1.654-1.346-3-3-3s-3 1.346-3 3c0 1.302.839 2.402 2 2.816v2.285c-.637.13-1.229.384-1.753.732l-1.54-1.54-1.414 1.414 1.54 1.54c-.348.524-.602 1.116-.732 1.753h-2.285c-.414-1.161-1.514-2-2.816-2-1.654 0-3 1.346-3 3s1.346 3 3 3c1.302 0 2.402-.839 2.816-2h2.285c.13.637.384 1.228.732 1.753l-1.097 1.097-.319-.185c-.75-.436-1.607-.665-2.476-.665-2.724 0-4.941 2.217-4.941 4.941v7.167c-1.261-1.16-2-2.803-2-4.58v-23.528h-2v2h-2v-2h-2v23.528c0 1.776-.739 3.418-2 4.579v-7.166c0-2.724-2.217-4.941-4.941-4.941-.869 0-1.725.229-2.476.665l-6.109 3.537c-7.694 4.454-12.474 12.744-12.474 21.635v11.163c0 4.963 4.038 9 9 9h10c3.86 0 7-3.141 7-7v-19.325c1.842-.722 3.545-1.806 4.943-3.204l.057-.057.057.057c1.398 1.399 3.101 2.483 4.943 3.204v19.325c0 3.859 3.14 7 7 7h10c4.962 0 9-4.037 9-9v-11.163c0-8.039-3.876-15.576-10.379-20.266-.351-.642-.924-1.138-1.621-1.387v-2.285c.637-.13 1.229-.384 1.753-.732l1.54 1.54 1.414-1.414-1.54-1.54c.348-.524.602-1.116.732-1.753zm2.816-2c.551 0 1 .448 1 1s-.449 1-1 1-1-.448-1-1 .449-1 1-1zm-7.678-.876c.417.516.678 1.163.678 1.876 0 .714-.261 1.361-.678 1.877-.776-.28-1.322-1.019-1.322-1.877 0-.86.546-1.596 1.322-1.876zm-2.322-9.124c.551 0 1 .448 1 1s-.449 1-1 1-1-.448-1-1 .449-1 1-1zm0 8c.115 0 .224.021.335.034-.817.735-1.335 1.79-1.335 2.966 0 1.174.518 2.23 1.336 2.966-.111.013-.221.034-.336.034-1.654 0-3-1.346-3-3s1.346-3 3-3zm-10 4c-.551 0-1-.448-1-1s.449-1 1-1 1 .448 1 1-.449 1-1 1zm7.247 3.167c.525.348 1.116.602 1.753.732v1.42l-2.473-1.432zm2.753 4.833c.551 0 1 .448 1 1s-.449 1-1 1-1-.448-1-1 .449-1 1-1zm-17-4h-2v-2h2zm0-4h-2v-2h2zm0-4h-2v-2h2zm0-6v2h-2v-2zm-13 56h-10c-3.86 0-7-3.141-7-7v-11.163c0-8.179 4.397-15.806 11.476-19.904l6.109-3.537c.447-.259.957-.396 1.474-.396 1.622 0 2.941 1.319 2.941 2.941v11.059h-4.343c-.79 0-1.562-.32-2.121-.879l-.829-.828-1.414 1.414.829.828c.515.515 1.128.891 1.791 1.138l-1.62 1.62 1.414 1.414 2.707-2.707h3.586v21c0 2.757-2.243 5-5 5zm13.471-28.943-1.471-1.471-1.471 1.471c-1.02 1.02-2.222 1.858-3.529 2.469v-2.957c2.475-1.485 4-4.117 4-7.04v-3.529h2v3.528c0 2.923 1.525 5.555 4 7.04v2.957c-1.307-.61-2.509-1.448-3.529-2.468zm27.529 10.78v11.163c0 3.859-3.14 7-7 7h-10c-2.757 0-5-2.243-5-5v-7h2.101c.13.637.384 1.228.732 1.753l-1.54 1.54 1.414 1.414 1.54-1.54c.525.348 1.116.602 1.753.732v2.101h2v-2.101c.637-.13 1.229-.384 1.753-.732l1.54 1.54 1.414-1.414-1.54-1.54c.348-.524.602-1.116.732-1.753h2.101v-2h-2.101c-.13-.637-.384-1.228-.732-1.753l1.54-1.54-1.414-1.414-1.54 1.54c-.525-.348-1.116-.602-1.753-.732v-2.101h-2v2.101c-.637.13-1.229.384-1.753.732l-1.54-1.54-1.414 1.414 1.54 1.54c-.348.524-.602 1.116-.732 1.753h-2.101v-12h3.586l2.707 2.707 1.414-1.414-1.62-1.62c.663-.247 1.276-.623 1.791-1.138l.829-.828-1.414-1.414-.829.828c-.558.559-1.331.879-2.121.879h-4.343v-11.059c0-1.622 1.319-2.941 2.941-2.941.517 0 1.027.137 1.474.396l4.408 2.552c-.507.537-.823 1.257-.823 2.052 0 1.654 1.346 3 3 3 1.227 0 2.282-.742 2.746-1.8 5.198 4.344 8.254 10.791 8.254 17.637zm-12 5.163c0 1.654-1.346 3-3 3-.499 0-.963-.134-1.378-.351 1.398-.624 2.378-2.021 2.378-3.649 0-.699-.186-1.365-.514-1.951 1.423.234 2.514 1.463 2.514 2.951zm-4.674-2.488c.421.374.674.908.674 1.488 0 1.041-.803 1.89-1.821 1.982-.108-.309-.179-.636-.179-.982 0-1.035.527-1.949 1.326-2.488z"/><path d="m56 52c-1.654 0-3 1.346-3 3s1.346 3 3 3 3-1.346 3-3-1.346-3-3-3zm0 4c-.551 0-1-.448-1-1s.449-1 1-1 1 .448 1 1-.449 1-1 1z"/><path d="m50 38c0 2.206 1.794 4 4 4s4-1.794 4-4-1.794-4-4-4-4 1.794-4 4zm4-2c1.103 0 2 .897 2 2s-.897 2-2 2-2-.897-2-2 .897-2 2-2z"/><path d="m41 26h2v2h-2z"/><path d="m11.533 49.388 2.325-3.874-1.715-1.029-2.157 3.595c-1.111-.816-2.325-1.494-3.614-2.009l-.743 1.857c3.016 1.206 5.563 3.423 7.175 6.243l1.328 2.324 1.736-.992-1.328-2.323c-.808-1.414-1.832-2.684-3.007-3.792z"/><path d="m57 45h2v2h-2z"/><path d="m51 30h2v2h-2z"/></g></svg>