<svg id="_x33_0" enable-background="new 0 0 64 64" height="512" viewBox="0 0 64 64" width="512" xmlns="http://www.w3.org/2000/svg"><g><g><g><path d="m10 42h2 4c1.48 0 2.77.8 3.46 2 .34.59.54 1.27.54 2 0 1.1-.45 2.1-1.17 2.83-.73.72-1.73 1.17-2.83 1.17h-2-4c-1.48 0-2.77-.8-3.46-2-.34-.59-.54-1.27-.54-2 0-1.1.45-2.1 1.17-2.83.73-.72 1.73-1.17 2.83-1.17z" fill="#5cd6b3"/></g><g><path d="m46 14v2c0 1.1-.45 2.1-1.17 2.83-.73.72-1.73 1.17-2.83 1.17-.73 0-1.41-.2-2-.54-1.2-.69-2-1.98-2-3.46v-4-2c0-1.1.45-2.1 1.17-2.83.73-.72 1.73-1.17 2.83-1.17.73 0 1.41.2 2 .54 1.2.69 2 1.98 2 3.46z" fill="#5cd6b3"/></g><g><path d="m56 35.66c0 1.5-.6 2.94-1.66 4l-2.34 2.34-6 6-4.5 4.5-1.84 1.84c-1.06 1.06-2.5 1.66-4 1.66-.22 0-.44-.01-.66-.04-1.3-.15-2.47-.74-3.34-1.62-.65-.64-1.14-1.44-1.41-2.34h-.01c-.15-.52-.24-1.08-.24-1.66 0-1.5.6-2.94 1.66-4l.34-.34 4-4 6-6 4.34-4.34c.39-.39.84-.73 1.33-.99.81-.43 1.73-.67 2.67-.67 1.39 0 2.68.5 3.66 1.34.12.11.23.21.34.32.88.87 1.47 2.04 1.62 3.34.03.22.04.44.04.66z" fill="#fcd770"/></g><g><path d="m16.96 11.96c.67.67 1.04 1.57 1.04 2.5 0 .98-.4 1.86-1.04 2.5l-.96.69c-.47.22-.99.35-1.54.35-.64 0-1.26-.17-1.8-.5-.25-.15-.49-.33-.7-.54l-2.96-2.96-1.96-1.96c-.3-.3-.54-.65-.71-1.02-.22-.46-.33-.97-.33-1.48 0-.98.4-1.86 1.04-2.5s1.52-1.04 2.5-1.04c.77 0 1.52.26 2.14.72.13.1.25.21.36.32l3.96 3.96z" fill="#fcd770"/></g><g><circle cx="12" cy="60" fill="#ff826e" r="2"/></g><g><circle cx="5" cy="29" fill="#ff826e" r="3"/></g><g><circle cx="28" cy="24" fill="#ff826e" r="2"/></g><g><circle cx="58" cy="10" fill="#ff826e" r="2"/></g><g><circle cx="54" cy="54" fill="#ff826e" r="2"/></g></g><g><path d="m56.985 35.961c1.027-.092 1.984-.516 2.722-1.254.449-.449 1.072-.707 1.707-.707h1.586v-2h-1.586c-1.179 0-2.288.459-3.121 1.293-.404.404-.948.641-1.515.688-.309-1.183-.93-2.241-1.778-3.072v-2.216c0-1.224.734-2.309 1.872-2.764 1.9-.76 3.128-2.574 3.128-4.621 0-.976-.156-1.939-.465-2.864l-.586-1.76-1.897.632.586 1.76c.24.721.362 1.471.362 2.232 0 1.224-.734 2.309-1.872 2.764-1.9.76-3.128 2.574-3.128 4.621v.865c-.815-.357-1.712-.558-2.657-.558-.856 0-1.686.164-2.458.471l-1.327-1.327c-.354-.355-.558-.846-.558-1.348 0-1.489-.827-2.828-2.159-3.494l-.394-.197-.895 1.789.394.197c.65.325 1.054.978 1.054 1.705 0 1.043.406 2.024 1.144 2.762l.964.964c-.163.135-.32.277-.472.428l-3.572 3.572c-.688-.975-1.064-2.133-1.064-3.351v-.171h-2v.171c0 1.754.579 3.415 1.636 4.779l-4.362 4.362-1.167-2.334c-.919-1.837-2.765-2.978-4.818-2.978h-.126c-1.46 0-2.751-.931-3.213-2.316l-1.897.633c.733 2.203 2.787 3.683 5.109 3.683h.126c1.291 0 2.452.718 3.03 1.873l1.465 2.93-3.112 3.112-4.475-.895-.393 1.961 3.317.663c-.728 1.086-1.12 2.362-1.12 3.699 0 .245.015.487.041.725-1.767.314-3.212 1.686-3.573 3.493-.193.965-.942 1.714-1.907 1.907l-2.757.551.393 1.961 2.757-.551c1.759-.352 3.124-1.716 3.476-3.476.21-1.05 1.09-1.824 2.138-1.932.806 1.825 2.407 3.216 4.362 3.743-.14.568-.485 1.07-.984 1.403-1.219.813-1.946 2.171-1.946 3.636v1.197h2v-1.197c0-.794.394-1.53 1.055-1.971.995-.663 1.654-1.693 1.865-2.845 1.679-.065 3.249-.742 4.444-1.937l1.136-1.136.757.757c.479.479.743 1.116.743 1.793 0 2.501 2.035 4.536 4.536 4.536h1.464v-2h-1.464c-1.398 0-2.536-1.138-2.536-2.536 0-1.211-.472-2.351-1.329-3.207l-.757-.757 3.489-3.489c1.47.057 2.844.65 3.89 1.696l1.414-1.414c-.999-.999-2.222-1.686-3.554-2.032l4.175-4.175 2.538.507c.927.186 1.7.776 2.123 1.622.859 1.718 2.587 2.785 4.508 2.785h1.503v-2h-1.503c-1.159 0-2.201-.644-2.719-1.68-.7-1.401-1.983-2.381-3.519-2.688l-1.231-.246 1.022-1.022c1.185-1.185 1.861-2.739 1.935-4.403zm-3.349 2.989-14.686 14.686c-.88.88-2.049 1.364-3.293 1.364-2.568 0-4.657-2.089-4.657-4.657 0-1.244.484-2.414 1.364-3.293l14.686-14.686c.88-.88 2.049-1.364 3.293-1.364 2.568 0 4.657 2.089 4.657 4.657 0 1.244-.484 2.413-1.364 3.293z"/><path d="m54 51c-1.654 0-3 1.346-3 3s1.346 3 3 3 3-1.346 3-3-1.346-3-3-3zm0 4c-.551 0-1-.449-1-1s.449-1 1-1 1 .449 1 1-.449 1-1 1z"/><path d="m43 42h2v2h-2z"/><path d="m13 45h2v2h-2z"/><path d="m22.067 53.481 1.226 1.226 1.414-1.414-1.226-1.226c-.31-.31-.481-.723-.481-1.162 0-1.489-.906-2.805-2.269-3.362.16-.489.269-1.001.269-1.543 0-.346-.036-.683-.103-1.009 1.706-.049 3.23-1.009 3.997-2.544l-1.789-.895c-.446.893-1.343 1.448-2.341 1.448h-.79c-.715-.945-1.744-1.638-2.944-1.891.068-.526.3-1.026.676-1.402.835-.833 1.294-1.942 1.294-3.121v-1.586h-2v1.586c0 .635-.258 1.258-.707 1.707-.734.734-1.157 1.686-1.253 2.707h-2.04v-4h-2v4h-1c-1.489 0-2.812.667-3.729 1.703l-.147-.049c-.672-.224-1.124-.851-1.124-1.559 0-.973-.379-1.888-1.067-2.576l-1.226-1.226-1.414 1.414 1.226 1.226c.31.31.481.723.481 1.162 0 1.489.906 2.805 2.269 3.362-.16.489-.269 1.001-.269 1.543 0 .346.036.683.103 1.009-1.706.049-3.23 1.009-3.997 2.544l1.789.895c.446-.893 1.343-1.448 2.341-1.448h.79c.715.945 1.744 1.638 2.944 1.891-.068.526-.3 1.026-.676 1.402-.835.833-1.294 1.942-1.294 3.121v1.586h2v-1.586c0-.635.258-1.258.707-1.707.734-.734 1.157-1.686 1.253-2.707h2.04v4h2v-4h1c1.489 0 2.812-.667 3.729-1.703l.147.049c.672.224 1.124.851 1.124 1.559 0 .973.379 1.888 1.067 2.576zm-6.067-4.481h-6c-1.654 0-3-1.346-3-3 0-1.302.839-2.402 2-2.816v1.816h2v-2h5c1.654 0 3 1.346 3 3s-1.346 3-3 3z"/><path d="m41 11h2v2h-2z"/><path d="m35.707 17.707c.377-.377.877-.608 1.402-.676.253 1.199.946 2.229 1.891 2.944v.79c0 .998-.555 1.895-1.447 2.341l.895 1.789c1.534-.767 2.495-2.291 2.544-3.997.325.066.662.102 1.008.102.542 0 1.054-.109 1.543-.269.557 1.363 1.873 2.269 3.362 2.269.439 0 .852.171 1.162.481l1.226 1.226 1.414-1.414-1.226-1.226c-.688-.688-1.603-1.067-2.576-1.067-.708 0-1.335-.452-1.559-1.123l-.049-.148c1.036-.916 1.703-2.24 1.703-3.729v-1h4v-2h-4v-2.04c1.021-.095 1.973-.518 2.707-1.253.449-.449 1.072-.707 1.707-.707h1.586v-2h-1.586c-1.179 0-2.288.459-3.121 1.293-.377.377-.877.608-1.402.676-.253-1.199-.946-2.228-1.891-2.943v-.79c0-.998.555-1.895 1.447-2.341l-.895-1.789c-1.534.767-2.495 2.291-2.544 3.997-.325-.067-.662-.103-1.008-.103-.542 0-1.054.109-1.543.269-.557-1.363-1.873-2.269-3.362-2.269-.439 0-.852-.171-1.162-.481l-1.226-1.226-1.414 1.414 1.226 1.226c.688.688 1.603 1.067 2.576 1.067.708 0 1.335.452 1.559 1.124l.049.147c-1.036.917-1.703 2.24-1.703 3.729v1h-4v2h4v2.04c-1.021.095-1.973.518-2.707 1.253-.449.449-1.072.707-1.707.707h-1.586v2h1.586c1.179 0 2.288-.459 3.121-1.293zm9.293-7.707v6c0 1.654-1.346 3-3 3s-3-1.346-3-3v-6c0-1.654 1.346-3 3-3s3 1.346 3 3z"/><path d="m9 9h2v2h-2z"/><path d="m13 13h2v2h-2z"/><path d="m2.707 13.707c.846-.846 1.934-1.386 3.103-1.594.154.222.323.435.518.63l1.077 1.077c-.92.742-1.584 1.768-1.876 2.937-.247.988-.911 1.815-1.821 2.27l-.156.078.895 1.789.156-.078c1.433-.716 2.478-2.019 2.867-3.574.204-.814.701-1.506 1.375-1.983l2.412 2.412c.029.029.064.049.094.077-.884 1.607-1.351 3.404-1.351 5.252h2c0-1.491.39-2.932 1.095-4.232.439.14.895.232 1.369.232.183 0 .358-.033.536-.054v.31c0 1.513 1.231 2.744 2.744 2.744.32 0 .604.204.705.508.473 1.42 1.471 2.57 2.808 3.238l.295.148.896-1.788-.296-.148c-.86-.43-1.501-1.169-1.806-2.082-.374-1.122-1.42-1.876-2.602-1.876-.411 0-.744-.333-.744-.744v-1.033c1.206-.816 2-2.196 2-3.759 0-.889-.259-1.736-.732-2.464h1.318c.635 0 1.258.258 1.707.707.833.834 1.942 1.293 3.121 1.293h.586v-2h-.586c-.635 0-1.258-.258-1.707-.707-.833-.834-1.942-1.293-3.121-1.293h-3.172l-3.112-3.112c1.197-.92 2.061-2.218 2.435-3.714l.233-.932-1.94-.484-.233.932c-.303 1.211-1.077 2.218-2.125 2.867-.652-.351-1.375-.557-2.136-.557-.889 0-1.712.266-2.413.709l-.795-.795c-.211-.212-.328-.493-.328-.793 0-1.721-1.4-3.121-3.121-3.121h-.879v2h.879c.618 0 1.121.503 1.121 1.121 0 .834.325 1.618.914 2.207l.795.795c-.443.701-.709 1.524-.709 2.413 0 .228.033.45.066.672-1.42.329-2.731 1.044-3.773 2.085zm6.829-6.707c.677 0 1.314.264 1.793.743l4.929 4.929c.478.478.742 1.115.742 1.792 0 1.398-1.138 2.536-2.536 2.536-.677 0-1.314-.264-1.793-.743l-4.929-4.929c-.478-.478-.742-1.115-.742-1.792 0-1.398 1.138-2.536 2.536-2.536z"/><path d="m5 33c2.206 0 4-1.794 4-4s-1.794-4-4-4-4 1.794-4 4 1.794 4 4 4zm0-6c1.103 0 2 .897 2 2s-.897 2-2 2-2-.897-2-2 .897-2 2-2z"/><path d="m12 57c-1.654 0-3 1.346-3 3s1.346 3 3 3 3-1.346 3-3-1.346-3-3-3zm0 4c-.551 0-1-.449-1-1s.449-1 1-1 1 .449 1 1-.449 1-1 1z"/><path d="m28 27c1.654 0 3-1.346 3-3s-1.346-3-3-3-3 1.346-3 3 1.346 3 3 3zm0-4c.551 0 1 .449 1 1s-.449 1-1 1-1-.449-1-1 .449-1 1-1z"/><path d="m34 50h2v2h-2z"/><path d="m36 46h2v2h-2z"/><path d="m51 36h2v2h-2z"/><path d="m47 34h2v2h-2z"/><path d="m58 13c1.654 0 3-1.346 3-3s-1.346-3-3-3-3 1.346-3 3 1.346 3 3 3zm0-4c.551 0 1 .449 1 1s-.449 1-1 1-1-.449-1-1 .449-1 1-1z"/></g></g></svg>