<svg id="Layer_1" enable-background="new 0 0 512.002 512.002" height="512" viewBox="0 0 512.002 512.002" width="512" xmlns="http://www.w3.org/2000/svg"><g><g clip-rule="evenodd" fill-rule="evenodd"><path d="m433.72 50c-15.343 15.344-40.687 40.687-56.031 56.031-21.497-15.735-48.006-25.03-76.689-25.03-59.605 0-109.837 40.116-125.178 94.817 11.188-3.137 22.986-4.815 35.177-4.815 3.094 0 6.163.108 9.203.322 14.665-29.808 45.334-50.324 80.799-50.324 49.705 0 90 40.294 90 90 0 35.468-20.516 66.144-50.329 80.807-11.968 5.886-25.434 9.193-39.671 9.193-49.705 0-89.999-40.293-90.002-89.998-14.238 0-27.703 3.306-39.671 9.193 4.506 64.465 56.005 115.975 120.469 120.484 3.04.213 6.109.321 9.203.321 7.999 0 15.828-.727 23.428-2.11 16.654-20.445 41.229-34.182 69.048-36.531 23.198-23.479 37.524-55.744 37.524-91.359 0-28.683-9.296-55.19-25.03-76.689 15.343-15.344 40.687-40.688 56.031-56.031v11.072c0 11.046 8.954 20 20 20s20-8.954 20-20c0-19.785 0-39.569 0-59.353 0-11.046-8.954-20-20-20-19.784 0-39.569 0-59.353 0-11.046 0-20 8.954-20 20s8.954 20 20 20z" fill="#ccf5fc"/><path d="m340.671 291.807c-4.506-64.464-56.006-115.974-120.469-120.483-3.04-.213-6.109-.321-9.203-.321-12.19 0-23.989 1.678-35.177 4.815-54.707 15.341-94.823 65.578-94.823 125.185 0 28.683 9.294 55.192 25.03 76.689-9.854 9.854-29.708 29.708-39.562 39.562-5.286-5.286-10.573-10.573-15.859-15.859-7.81-7.809-20.472-7.809-28.281 0-7.809 7.81-7.809 20.472 0 28.281l15.859 15.859c-7.443 7.443-14.886 14.885-22.328 22.328-7.809 7.81-7.809 20.472 0 28.281 7.809 7.81 20.472 7.81 28.281 0 7.443-7.443 14.886-14.885 22.328-22.328l15.859 15.859c7.81 7.81 20.472 7.81 28.281 0 7.809-7.809 7.809-20.472 0-28.281-5.287-5.287-10.573-10.573-15.86-15.86l39.562-39.562c21.499 15.734 48.006 25.03 76.689 25.03 35.617 0 67.883-14.327 91.361-37.528 1.74-20.609 9.73-39.438 22.068-54.585-7.6 1.383-15.429 2.11-23.428 2.11-3.094 0-6.163-.108-9.203-.323-14.665 29.809-45.334 50.325-80.799 50.325-49.706 0-90-40.294-90-90 0-35.468 20.517-66.144 50.329-80.807 11.968-5.887 25.433-9.193 39.671-9.193 49.705 0 89.999 40.293 90.002 89.998 14.239.002 27.705-3.304 39.672-9.192z" fill="#ff5d7d"/><path d="m393.476 302.36c-27.818 2.349-52.394 16.086-69.048 36.531-12.338 15.147-20.328 33.976-22.068 54.585-.237 2.811-.358 5.654-.358 8.526 0 55.228 44.772 100 100 100s100-44.772 100-100-44.772-100-100-100c-2.872 0-5.716.121-8.526.358zm-28.895 77.915c0-11.121 9.016-20.137 20.137-20.137s20.137 9.016 20.137 20.137c0 5.563 2.254 10.598 5.896 14.241 3.643 3.643 8.678 5.896 14.24 5.896 11.122 0 20.138 9.016 20.138 20.138 0 11.121-9.016 20.137-20.138 20.137-16.68 0-31.783-6.763-42.716-17.696-10.932-10.933-17.694-26.036-17.694-42.716z" fill="#fff"/><path d="m384.718 360.138c-11.122 0-20.137 9.016-20.137 20.137 0 16.68 6.762 31.783 17.695 42.716s26.036 17.696 42.716 17.696c11.122 0 20.138-9.016 20.138-20.137 0-11.122-9.016-20.138-20.138-20.138-5.562 0-10.598-2.254-14.24-5.896-3.643-3.643-5.896-8.678-5.896-14.241 0-11.121-9.016-20.137-20.138-20.137z" fill="#b8ecbc"/></g><g><path d="m457.002 430.214-2.948-1.702c.696-2.538 1.076-5.207 1.076-7.963 0-3.943-.769-7.707-2.152-11.162l3.877-3.877c3.905-3.905 3.905-10.237 0-14.143-3.906-3.904-10.236-3.904-14.143 0l-2.936 2.936c-4.372-2.472-9.414-3.891-14.785-3.891-2.709 0-5.256-1.054-7.169-2.968-1.914-1.913-2.968-4.46-2.968-7.17 0-3.452-.591-6.766-1.664-9.857l4.285-4.285c3.905-3.905 3.905-10.237 0-14.143-3.906-3.904-10.236-3.904-14.143 0l-2.706 2.706c-4.621-2.885-10.072-4.558-15.909-4.558-.901 0-1.79.047-2.671.125l-2.613-4.526c-2.76-4.781-8.874-6.422-13.66-3.66-4.782 2.761-6.422 8.877-3.66 13.66l1.669 2.89c-2.8 2.709-5.078 5.952-6.666 9.567h-5.115c-5.522 0-10 4.478-10 10s4.478 10 10 10h3.033c.614 5.52 1.857 10.9 3.717 16.047l-3.296 1.903c-4.783 2.761-6.422 8.877-3.66 13.66 1.853 3.208 5.213 5.002 8.67 5.002 1.696 0 3.415-.433 4.99-1.342l2.729-1.576c2.113 2.871 4.452 5.606 7.021 8.175 1.344 1.344 2.744 2.61 4.174 3.83l-1.957 3.389c-2.762 4.783-1.123 10.899 3.66 13.66 1.575.909 3.294 1.342 4.99 1.342 3.456 0 6.818-1.794 8.67-5.002l1.554-2.691c5.011 2.239 10.278 3.884 15.719 4.893v3.782c0 5.522 4.478 10 10 10s10-4.478 10-10v-3.414c3.868-.927 7.448-2.601 10.579-4.862l4.408 2.545c1.575.909 3.294 1.342 4.99 1.342 3.456 0 6.818-1.794 8.67-5.002 2.762-4.783 1.123-10.899-3.66-13.66zm-62.147-49.939c0 8.053 3.134 15.621 8.825 21.313s13.26 8.825 21.312 8.825c5.59 0 10.138 4.547 10.138 10.137s-4.548 10.138-10.138 10.138c-13.463 0-26.122-5.244-35.645-14.766-9.522-9.523-14.767-22.184-14.767-35.646 0-5.59 4.548-10.137 10.138-10.137s10.137 4.546 10.137 10.136z"/><path d="m414.68 292.736c17.087-23.666 26.32-52.015 26.32-81.735 0-27.044-7.609-52.967-22.084-75.492l35.168-35.169c4.394 11.124 15.251 19.014 27.917 19.014 16.542 0 30-13.458 30-30.001v-59.353c0-16.542-13.458-30-30-30h-59.353c-16.543 0-30.001 13.458-30.001 30 0 12.666 7.89 23.523 19.014 27.917l-35.168 35.168c-22.522-14.475-48.444-22.084-75.493-22.084-31.132 0-60.604 10.003-85.229 28.927-22.409 17.22-39.295 41.18-47.974 67.906-56.118 18.25-96.797 71.044-96.797 133.169 0 27.048 7.608 52.971 22.084 75.492l-26.616 26.616-8.788-8.787c-5.665-5.666-13.198-8.787-21.212-8.787-8.013 0-15.546 3.12-21.212 8.786-11.696 11.696-11.696 30.727 0 42.425l8.787 8.787-15.256 15.257c-5.666 5.666-8.787 13.199-8.787 21.212s3.12 15.546 8.787 21.212c5.848 5.848 13.529 8.771 21.211 8.771 7.682-.001 15.363-2.924 21.212-8.771l15.257-15.258 8.788 8.789c5.666 5.666 13.199 8.786 21.213 8.786 8.013 0 15.546-3.12 21.212-8.787 11.695-11.696 11.695-30.728 0-42.423l-8.789-8.789 26.617-26.616c22.524 14.476 48.447 22.085 75.491 22.085 29.721 0 58.071-9.234 81.738-26.323 6.307 54.704 52.899 97.321 109.265 97.321 60.654 0 110-49.346 110-110 0-56.366-42.618-102.958-97.322-109.265zm-113.68-201.735c25.662 0 50.139 7.987 70.783 23.099 3.979 2.911 9.488 2.488 12.978-.998l56.03-56.03c2.859-2.86 3.716-7.161 2.168-10.898s-5.194-6.174-9.239-6.174h-11.071c-5.515 0-10.001-4.486-10.001-10s4.486-10 10.001-10h59.353c5.514 0 10 4.486 10 10v59.353c0 5.515-4.486 10.001-10 10.001s-10-4.486-10-10.001v-11.071c0-4.045-2.437-7.691-6.173-9.239-3.737-1.546-8.038-.692-10.898 2.168l-56.03 56.03c-3.487 3.487-3.911 8.997-.999 12.977 15.112 20.649 23.1 45.126 23.1 70.784 0 30.601-11.415 59.51-32.212 81.796-27.606 3.32-52.098 16.903-69.538 36.815-6.021.918-12.145 1.389-18.25 1.389-60.314 0-111.363-45.413-118.998-104.536 6.186-2.415 12.74-4.081 19.557-4.886 5.315 50.144 47.985 89.422 99.441 89.422 55.141 0 100-44.859 100-100s-44.859-100-100-100c-36.164 0-68.788 19.017-86.634 50.042-1.12-.027-2.243-.04-3.367-.04-6.692 0-13.273.483-19.717 1.395 18.983-42.749 61.94-71.398 109.716-71.398zm-79.252 130.753c35.358 4.827 63.679 33.069 68.503 68.502-35.46-4.807-63.695-33.013-68.503-68.502zm126.869 53.489c-5.442-29.268-20.092-56.068-42.169-76.653-19.637-18.311-43.787-30.402-69.756-35.222 14.922-20.25 38.489-32.366 64.308-32.366 44.112 0 80 35.888 80 80 0 26.287-12.748 49.649-32.383 64.241zm-208.4 122.661c-3.98-2.912-9.49-2.491-12.977.998l-39.563 39.562c-1.876 1.875-2.93 4.419-2.93 7.071s1.054 5.195 2.929 7.071l15.86 15.86c3.898 3.897 3.897 10.24 0 14.139-3.897 3.897-10.24 3.898-14.14.001l-15.859-15.861c-1.876-1.875-4.419-2.929-7.071-2.929s-5.196 1.054-7.071 2.93l-22.327 22.328c-3.9 3.898-10.243 3.896-14.14 0-1.888-1.888-2.928-4.4-2.928-7.07 0-2.671 1.04-5.182 2.929-7.07l22.328-22.329c3.905-3.905 3.905-10.236 0-14.142l-15.859-15.857c-3.897-3.899-3.898-10.242 0-14.14 1.888-1.889 4.399-2.929 7.069-2.929 2.671 0 5.182 1.04 7.07 2.93l15.858 15.857c3.906 3.904 10.237 3.905 14.142 0l39.563-39.562c3.487-3.488 3.911-8.998.998-12.979-15.112-20.644-23.1-45.119-23.1-70.781 0-66.168 53.832-120 120-120 60.301 0 111.363 45.418 118.998 104.536-6.185 2.415-12.738 4.08-19.555 4.886-2.403-22.954-12.589-44.212-29.222-60.619-18.831-18.574-43.769-28.803-70.221-28.803-55.141 0-100 44.859-100 100 0 9.383 1.303 18.681 3.873 27.637 1.259 4.387 5.26 7.244 9.607 7.244.913 0 1.842-.126 2.764-.391 5.309-1.523 8.377-7.063 6.854-12.371-2.056-7.161-3.098-14.604-3.098-22.119 0-26.288 12.748-49.65 32.383-64.241 5.439 29.254 20.078 56.042 42.139 76.625 19.641 18.326 43.799 30.426 69.779 35.25-14.932 20.242-38.523 32.367-64.302 32.367-7.518 0-14.962-1.043-22.126-3.1-5.308-1.531-10.848 1.542-12.371 6.852-1.524 5.309 1.543 10.848 6.852 12.371 8.959 2.572 18.261 3.877 27.646 3.877 36.108 0 68.773-19.032 86.628-50.043 1.123.027 2.247.041 3.373.041 1.196 0 2.393-.019 3.59-.05-6.083 11.559-10.167 24.324-11.792 37.838-22.286 20.798-51.197 32.214-81.799 32.214-25.656 0-50.133-7.988-70.781-23.099zm261.785 94.097c-49.626 0-90-40.374-90-90s40.374-90 90-90 90 40.374 90 90-40.374 90-90 90z"/><path d="m147.359 354.643h-.007c-5.522 0-9.996 4.478-9.996 10s4.48 10 10.003 10 10-4.478 10-10-4.477-10-10-10z"/></g></g></svg>